<svg id="Layer_2" data-name="Layer 2" xmlns="http://www.w3.org/2000/svg" viewBox="0 0 77.72 89.75"><defs><style>.cls-1{fill:#e06eb3;}.cls-1,.cls-10,.cls-2,.cls-3,.cls-4,.cls-5,.cls-6,.cls-7,.cls-8,.cls-9{fill-rule:evenodd;}.cls-2{fill:#f794d1;}.cls-3{fill:#9c0e5c;}.cls-4{fill:#bd3a77;}.cls-5{fill:#67052f;}.cls-6{fill:#c4358a;}.cls-7{fill:#8a0c4e;}.cls-8{fill:#9c1c5c;}.cls-9{fill:#8b0d4f;}.cls-10{fill:#680632;}</style></defs><polygon class="cls-1" points="0 22.44 8.81 47.58 0 67.31 0 22.44"/><polygon class="cls-2" points="0 22.44 38.86 0 8.81 47.58 0 22.44"/><polygon class="cls-3" points="0 67.31 8.81 47.58 38.86 89.75 0 67.31"/><polygon class="cls-4" points="77.72 67.31 52.39 70.61 38.86 89.75 77.72 67.31"/><polygon class="cls-5" points="8.81 47.58 38.86 89.75 52.39 70.61 8.81 47.58"/><polygon class="cls-6" points="38.86 0 8.81 47.58 65.19 33.46 38.86 0"/><polygon class="cls-7" points="8.81 47.58 52.39 70.61 65.19 33.46 8.81 47.58"/><polygon class="cls-8" points="65.19 33.46 52.39 70.61 77.72 67.31 65.19 33.46"/><polygon class="cls-9" points="65.19 33.46 38.86 0 77.72 22.44 65.19 33.46"/><polygon class="cls-10" points="77.72 67.31 65.19 33.46 77.72 22.44 77.72 67.31"/></svg>