<svg id="Layer_1" data-name="Layer 1" xmlns="http://www.w3.org/2000/svg" xmlns:xlink="http://www.w3.org/1999/xlink" viewBox="0 0 143.88 109.09"><defs><style>.cls-1,.cls-10,.cls-11,.cls-17,.cls-18,.cls-19,.cls-2,.cls-20,.cls-21,.cls-22,.cls-23,.cls-24,.cls-25,.cls-26,.cls-27,.cls-28,.cls-31,.cls-32,.cls-33,.cls-34,.cls-35,.cls-36,.cls-37,.cls-4,.cls-40,.cls-42,.cls-5,.cls-6,.cls-7,.cls-8,.cls-9{fill-rule:evenodd;}.cls-1{fill:url(#Linear_Gradient_148);}.cls-2{fill:url(#Linear_Gradient_149);}.cls-3,.cls-32{fill:#0071bb;}.cls-4{fill:#4693ca;}.cls-5{fill:#d0d0d0;}.cls-6{fill:url(#Linear_Gradient_150);}.cls-7{fill:url(#Linear_Gradient_152);}.cls-8{fill:url(#Linear_Gradient_152-2);}.cls-9{fill:url(#Linear_Gradient_153);}.cls-10{fill:#8e8e8e;}.cls-11,.cls-13{fill:#7e7e7e;}.cls-12{fill:#464646;}.cls-14{fill:#636363;}.cls-15{fill:#797979;}.cls-16{fill:#eee;}.cls-17{fill:#afafaf;}.cls-18{fill:#b3b3b3;}.cls-19{fill:#b8b8b8;}.cls-20{fill:#bfbfbf;}.cls-21{fill:#c4c4c4;}.cls-22{fill:#ccc;}.cls-23{fill:#d2d2d2;}.cls-24{fill:#b5b5b5;}.cls-25{fill:#c7c7c7;}.cls-26{fill:#d1d1d1;}.cls-27{fill:#d9d9d9;}.cls-28{fill:#e4e4e4;}.cls-29{fill:#535353;}.cls-30{fill:#fff;}.cls-33{fill:#0066a6;}.cls-34{fill:#005c93;}.cls-35{fill:#005182;}.cls-36{fill:#04456d;}.cls-37{fill:#163b5a;}.cls-38{fill:#143044;}.cls-39{fill:#fdfdfd;}.cls-40{fill:#727681;}.cls-41{fill:#767676;}.cls-42{fill:#a4a7bc;}</style><linearGradient id="Linear_Gradient_148" x1="74.33" y1="16.7" x2="74.33" y2="102.52" gradientUnits="userSpaceOnUse"><stop offset="0"/><stop offset="1" stop-color="#303030"/></linearGradient><linearGradient id="Linear_Gradient_149" x1="49.12" y1="16.7" x2="49.12" y2="102.52" gradientUnits="userSpaceOnUse"><stop offset="0" stop-color="#c9c9c9"/><stop offset="1" stop-color="#666"/></linearGradient><linearGradient id="Linear_Gradient_150" x1="75.42" y1="117.54" x2="75.42" y2="123.85" gradientUnits="userSpaceOnUse"><stop offset="0" stop-color="#fff"/><stop offset="1" stop-color="#747474"/></linearGradient><linearGradient id="Linear_Gradient_152" x1="32.51" y1="100.09" x2="32.51" y2="102.27" gradientUnits="userSpaceOnUse"><stop offset="0" stop-color="#fff"/><stop offset="1" stop-color="#999"/></linearGradient><linearGradient id="Linear_Gradient_152-2" x1="114.69" y1="99.85" x2="114.69" y2="102.03" xlink:href="#Linear_Gradient_152"/><linearGradient id="Linear_Gradient_153" x1="71.88" y1="101.95" x2="71.88" y2="96.99" gradientUnits="userSpaceOnUse"><stop offset="0" stop-color="#e6e6e6"/><stop offset="1" stop-color="#aeaeae"/></linearGradient></defs><path class="cls-1" d="M12.26,102.76V19.41A4.42,4.42,0,0,1,16.67,15H132a4.42,4.42,0,0,1,4.41,4.41v83.35Z" transform="translate(-3.54 -15)"/><path class="cls-2" d="M12.26,102.76V19.41A4.42,4.42,0,0,1,16.67,15H86l-25.4,87.76Z" transform="translate(-3.54 -15)"/><rect class="cls-3" x="14.06" y="2.84" width="113.46" height="78.37"/><polygon class="cls-4" points="14.06 2.84 14.06 81.21 53.06 81.21 75.65 2.84 14.06 2.84"/><polygon class="cls-5" points="8.48 88.24 0 102.55 143.75 102.55 133.09 88.24 8.48 88.24"/><path class="cls-6" d="M3.54,119.64v-2H147.3v2a4.46,4.46,0,0,1-4.46,4.45H8A4.45,4.45,0,0,1,3.54,119.64Z" transform="translate(-3.54 -15)"/><path class="cls-7" d="M20,103.16V100.9a1.05,1.05,0,0,1,1.06-1.05H43.93A1.05,1.05,0,0,1,45,100.9v2.34H20Z" transform="translate(-3.54 -15)"/><path class="cls-8" d="M102.2,103.16V100.9a1.06,1.06,0,0,1,1.06-1.05h22.86a1,1,0,0,1,1,1.05v2.34h-25A.25.25,0,0,1,102.2,103.16Z" transform="translate(-3.54 -15)"/><polygon class="cls-9" points="8.48 88.24 0 102.55 143.75 102.55 133.09 88.24 8.48 88.24"/><polygon class="cls-10" points="15.68 89.7 12.85 96.59 128.97 96.59 124.42 89.7 15.68 89.7"/><polygon class="cls-11" points="56.49 98.44 55.63 100.85 91.04 100.85 89.65 98.44 56.49 98.44"/><rect class="cls-12" x="17.9" y="91.43" width="4.85" height="1.39"/><rect class="cls-12" x="24.2" y="91.43" width="4.85" height="1.39"/><rect class="cls-12" x="30.26" y="91.43" width="4.85" height="1.39"/><rect class="cls-12" x="36.56" y="91.43" width="4.85" height="1.39"/><rect class="cls-12" x="42.86" y="91.43" width="4.85" height="1.39"/><rect class="cls-12" x="49.17" y="91.43" width="4.85" height="1.39"/><rect class="cls-12" x="55.47" y="91.43" width="4.85" height="1.39"/><rect class="cls-12" x="61.78" y="91.43" width="4.85" height="1.39"/><rect class="cls-12" x="68.08" y="91.43" width="4.85" height="1.39"/><rect class="cls-12" x="74.38" y="91.43" width="4.85" height="1.39"/><rect class="cls-12" x="80.92" y="91.43" width="4.85" height="1.39"/><rect class="cls-12" x="87.23" y="91.43" width="4.85" height="1.39"/><rect class="cls-12" x="93.29" y="91.43" width="4.85" height="1.39"/><rect class="cls-12" x="99.59" y="91.43" width="4.85" height="1.39"/><rect class="cls-12" x="105.9" y="91.43" width="4.85" height="1.39"/><rect class="cls-12" x="112.2" y="91.43" width="4.85" height="1.39"/><rect class="cls-12" x="118.5" y="91.43" width="4.85" height="1.39"/><rect class="cls-12" x="16.48" y="94.42" width="4.85" height="1.58"/><rect class="cls-12" x="22.79" y="94.42" width="4.85" height="1.58"/><rect class="cls-12" x="28.84" y="94.42" width="4.85" height="1.58"/><rect class="cls-12" x="35.15" y="94.42" width="4.85" height="1.58"/><rect class="cls-12" x="41.45" y="94.42" width="4.85" height="1.58"/><rect class="cls-12" x="47.75" y="94.42" width="4.85" height="1.58"/><rect class="cls-12" x="54.06" y="94.42" width="4.85" height="1.58"/><rect class="cls-12" x="60.36" y="94.42" width="4.85" height="1.58"/><rect class="cls-12" x="66.67" y="94.42" width="4.85" height="1.58"/><rect class="cls-12" x="72.97" y="94.42" width="4.85" height="1.58"/><rect class="cls-12" x="79.51" y="94.42" width="4.85" height="1.58"/><rect class="cls-12" x="85.81" y="94.42" width="4.85" height="1.58"/><rect class="cls-12" x="91.88" y="94.42" width="4.85" height="1.58"/><rect class="cls-12" x="98.18" y="94.42" width="4.85" height="1.58"/><rect class="cls-12" x="104.48" y="94.42" width="4.85" height="1.58"/><rect class="cls-12" x="110.79" y="94.42" width="4.85" height="1.58"/><rect class="cls-12" x="117.09" y="94.42" width="4.85" height="1.58"/><rect class="cls-13" x="91.39" y="104.92" width="47.52" height="1.79"/><rect class="cls-14" x="4.6" y="104.33" width="11.88" height="1.85"/><rect class="cls-15" x="20.61" y="104.33" width="11.88" height="1.85"/><rect class="cls-16" x="17.94" y="90.73" width="4.85" height="1.39"/><rect class="cls-16" x="24.24" y="90.73" width="4.85" height="1.4"/><rect class="cls-16" x="30.3" y="90.73" width="4.85" height="1.39"/><rect class="cls-16" x="36.61" y="90.73" width="4.85" height="1.4"/><rect class="cls-16" x="42.91" y="90.73" width="4.85" height="1.39"/><rect class="cls-16" x="49.21" y="90.73" width="4.85" height="1.4"/><rect class="cls-16" x="55.52" y="90.73" width="4.85" height="1.39"/><rect class="cls-16" x="61.82" y="90.73" width="4.85" height="1.4"/><rect class="cls-16" x="68.12" y="90.73" width="4.85" height="1.39"/><rect class="cls-16" x="74.42" y="90.73" width="4.85" height="1.4"/><rect class="cls-16" x="80.97" y="90.73" width="4.85" height="1.39"/><rect class="cls-16" x="87.27" y="90.73" width="4.85" height="1.4"/><rect class="cls-16" x="93.33" y="90.73" width="4.85" height="1.39"/><rect class="cls-16" x="99.64" y="90.73" width="4.85" height="1.4"/><rect class="cls-16" x="105.94" y="90.73" width="4.85" height="1.39"/><rect class="cls-16" x="112.24" y="90.73" width="4.85" height="1.4"/><rect class="cls-16" x="118.54" y="90.73" width="4.85" height="1.39"/><rect class="cls-16" x="16.53" y="93.62" width="4.85" height="1.58"/><rect class="cls-16" x="22.83" y="93.62" width="4.85" height="1.58"/><rect class="cls-16" x="28.89" y="93.62" width="4.85" height="1.58"/><rect class="cls-16" x="35.19" y="93.62" width="4.85" height="1.58"/><rect class="cls-16" x="41.5" y="93.62" width="4.85" height="1.58"/><rect class="cls-16" x="47.8" y="93.62" width="4.85" height="1.58"/><rect class="cls-16" x="54.1" y="93.62" width="4.85" height="1.58"/><rect class="cls-16" x="60.41" y="93.62" width="4.85" height="1.58"/><rect class="cls-16" x="66.71" y="93.62" width="4.85" height="1.58"/><rect class="cls-16" x="73.01" y="93.62" width="4.85" height="1.58"/><rect class="cls-16" x="79.56" y="93.62" width="4.85" height="1.58"/><rect class="cls-16" x="85.86" y="93.62" width="4.85" height="1.58"/><rect class="cls-16" x="91.92" y="93.62" width="4.85" height="1.58"/><rect class="cls-16" x="98.22" y="93.62" width="4.85" height="1.58"/><rect class="cls-16" x="104.53" y="93.62" width="4.85" height="1.58"/><rect class="cls-16" x="110.83" y="93.62" width="4.85" height="1.58"/><rect class="cls-16" x="117.13" y="93.62" width="4.85" height="1.58"/><rect x="56.69" y="98.18" width="32.87" height="0.49"/><path class="cls-17" d="M3.55,117.55,12,103.24h5.33A78.05,78.05,0,0,1,3.55,117.55Z" transform="translate(-3.54 -15)"/><path class="cls-18" d="M3.55,117.55a82.24,82.24,0,0,0,13-14.31H12Z" transform="translate(-3.54 -15)"/><path class="cls-19" d="M3.55,117.55a86.7,86.7,0,0,0,12.26-14.31H12Z" transform="translate(-3.54 -15)"/><path class="cls-20" d="M3.55,117.55a93.93,93.93,0,0,0,11.5-14.31H12Z" transform="translate(-3.54 -15)"/><path class="cls-21" d="M3.55,117.55c4.12-4.42,6.65-8.19,10.73-14.31H12Z" transform="translate(-3.54 -15)"/><path class="cls-22" d="M3.55,117.55c4-4.59,6-8.18,10-14.31H12Z" transform="translate(-3.54 -15)"/><path class="cls-23" d="M3.55,117.55,12,103.24h.72C8.91,109.37,7.42,112.78,3.55,117.55Z" transform="translate(-3.54 -15)"/><path class="cls-17" d="M147.41,117.54l-10.77-14.3h-5.33A98.43,98.43,0,0,0,147.41,117.54Z" transform="translate(-3.54 -15)"/><path class="cls-24" d="M147.41,117.54l-10.77-14.3h-4.56A103.62,103.62,0,0,0,147.41,117.54Z" transform="translate(-3.54 -15)"/><path class="cls-20" d="M147.41,117.54l-10.77-14.3h-3.8A110.08,110.08,0,0,0,147.41,117.54Z" transform="translate(-3.54 -15)"/><path class="cls-25" d="M147.41,117.54l-10.77-14.3h-3A117.52,117.52,0,0,0,147.41,117.54Z" transform="translate(-3.54 -15)"/><path class="cls-26" d="M147.41,117.54l-10.77-14.3h-2.26C139.45,109.36,142.58,113.13,147.41,117.54Z" transform="translate(-3.54 -15)"/><path class="cls-27" d="M147.41,117.54l-10.77-14.3h-1.49C140.09,109.37,142.68,113,147.41,117.54Z" transform="translate(-3.54 -15)"/><path class="cls-28" d="M147.41,117.54l-10.77-14.3h-.73C140.74,109.37,142.77,112.78,147.41,117.54Z" transform="translate(-3.54 -15)"/><rect class="cls-29" y="102.3" width="143.76" height="0.73"/><rect class="cls-30" y="103.03" width="143.76" height="0.73"/><rect x="15.67" y="89.65" width="109.09" height="0.4"/><rect class="cls-30" x="91.44" y="106.51" width="47.52" height="0.79"/><polygon class="cls-31" points="13.07 96.67 12.71 96.52 15.48 89.78 15.85 89.93 13.07 96.67"/><polygon class="cls-31" points="128.56 96.5 124.38 89.83 124.71 89.62 128.89 96.29 128.56 96.5"/><path class="cls-32" d="M50.54,29.32V51.06a4,4,0,0,0,4.09,3.81H103.4a4,4,0,0,0,4.08-3.81V29.32a4,4,0,0,0-4.08-3.81H54.63A4,4,0,0,0,50.54,29.32Z" transform="translate(-3.54 -15)"/><path class="cls-33" d="M54.52,54.14h47.26A4.16,4.16,0,0,0,106,51a25.33,25.33,0,0,0,.58-5.15V29.67a3.88,3.88,0,0,0-4-3.75H55.36a4.17,4.17,0,0,0-4.24,3.17,25.41,25.41,0,0,0-.58,5.15V50.4A3.87,3.87,0,0,0,54.52,54.14Z" transform="translate(-3.54 -15)"/><path class="cls-34" d="M54.41,53.42h45.76a4.7,4.7,0,0,0,4.39-2.54,10.7,10.7,0,0,0,1.15-4.81V30a3.79,3.79,0,0,0-3.87-3.69H56.09a4.72,4.72,0,0,0-4.4,2.54,10.83,10.83,0,0,0-1.15,4.81v16A3.79,3.79,0,0,0,54.41,53.42Z" transform="translate(-3.54 -15)"/><path class="cls-35" d="M54.31,52.69H98.56a6,6,0,0,0,4.55-1.9,6.44,6.44,0,0,0,1.72-4.48V30.37a3.71,3.71,0,0,0-3.77-3.63H56.82a6,6,0,0,0-4.55,1.91,6.4,6.4,0,0,0-1.73,4.47V49.06A3.71,3.71,0,0,0,54.31,52.69Z" transform="translate(-3.54 -15)"/><path class="cls-36" d="M54.2,52H96.94a9.21,9.21,0,0,0,4.71-1.27,4.61,4.61,0,0,0,2.3-4.13V30.72a3.62,3.62,0,0,0-3.66-3.57H57.55a9.21,9.21,0,0,0-4.71,1.27,4.61,4.61,0,0,0-2.3,4.13V48.39A3.62,3.62,0,0,0,54.2,52Z" transform="translate(-3.54 -15)"/><path class="cls-37" d="M54.1,51.23H95.33a20.24,20.24,0,0,0,4.86-.63,3.81,3.81,0,0,0,2.88-3.79V31.07a3.54,3.54,0,0,0-3.56-3.51H58.28a20.22,20.22,0,0,0-4.86.64A3.8,3.8,0,0,0,50.54,32V47.72A3.54,3.54,0,0,0,54.1,51.23Z" transform="translate(-3.54 -15)"/><rect class="cls-38" x="47.01" y="12.97" width="51.64" height="22.53" rx="3.45"/><rect class="cls-39" x="46.81" y="12.9" width="50.38" height="23.2" rx="3.28"/><path class="cls-40" d="M50.15,29.39h50.77a3.29,3.29,0,0,0-3.3-3.28H53.45A3.29,3.29,0,0,0,50.15,29.39Z" transform="translate(-3.54 -15)"/><rect class="cls-41" x="50.97" y="17.85" width="22.61" height="3.77"/><rect class="cls-30" x="51.37" y="18.25" width="22.21" height="3.37"/><rect class="cls-41" x="51.17" y="25.99" width="22.61" height="3.77"/><rect class="cls-30" x="51.57" y="26.38" width="22.21" height="3.37"/><rect x="51.97" y="19.44" width="1.98" height="0.59" rx="0.29"/><rect x="55.14" y="19.44" width="1.98" height="0.59" rx="0.29"/><rect x="54.15" y="19.44" width="0.79" height="0.59" rx="0.29"/><rect x="57.32" y="19.44" width="1.19" height="0.6" rx="0.29"/><rect x="58.71" y="19.44" width="1.19" height="0.6" rx="0.29"/><circle cx="53.35" cy="28.17" r="0.4"/><path class="cls-31" d="M58.68,42.77a.4.4,0,1,1-.4.4A.4.4,0,0,1,58.68,42.77Z" transform="translate(-3.54 -15)"/><circle cx="56.93" cy="28.17" r="0.4"/><path class="cls-31" d="M62.05,42.77a.4.4,0,1,1-.4.4A.4.4,0,0,1,62.05,42.77Z" transform="translate(-3.54 -15)"/><path class="cls-31" d="M63.83,42.77a.4.4,0,1,1-.4.4A.4.4,0,0,1,63.83,42.77Z" transform="translate(-3.54 -15)"/><path class="cls-31" d="M65.42,42.77a.4.4,0,1,1-.4.4A.4.4,0,0,1,65.42,42.77Z" transform="translate(-3.54 -15)"/><path class="cls-42" d="M53.45,26.11H76.89l-1.26,3.28H50.15A3.29,3.29,0,0,1,53.45,26.11Z" transform="translate(-3.54 -15)"/></svg>