<svg id="Layer_1" data-name="Layer 1" xmlns="http://www.w3.org/2000/svg" xmlns:xlink="http://www.w3.org/1999/xlink" viewBox="0 0 92.34 130.9"><defs><style>.cls-1{fill:#4b4b4b;}.cls-1,.cls-10,.cls-100,.cls-101,.cls-102,.cls-103,.cls-104,.cls-105,.cls-109,.cls-11,.cls-110,.cls-111,.cls-112,.cls-113,.cls-114,.cls-115,.cls-116,.cls-117,.cls-118,.cls-119,.cls-12,.cls-120,.cls-121,.cls-122,.cls-123,.cls-124,.cls-125,.cls-126,.cls-127,.cls-128,.cls-129,.cls-13,.cls-130,.cls-131,.cls-132,.cls-133,.cls-134,.cls-139,.cls-14,.cls-142,.cls-143,.cls-144,.cls-145,.cls-146,.cls-147,.cls-148,.cls-149,.cls-15,.cls-150,.cls-151,.cls-152,.cls-153,.cls-154,.cls-155,.cls-156,.cls-157,.cls-16,.cls-161,.cls-162,.cls-163,.cls-164,.cls-165,.cls-166,.cls-167,.cls-168,.cls-169,.cls-17,.cls-170,.cls-171,.cls-172,.cls-173,.cls-174,.cls-175,.cls-176,.cls-177,.cls-178,.cls-179,.cls-18,.cls-180,.cls-181,.cls-182,.cls-183,.cls-184,.cls-185,.cls-186,.cls-187,.cls-188,.cls-189,.cls-19,.cls-190,.cls-191,.cls-192,.cls-193,.cls-194,.cls-196,.cls-197,.cls-198,.cls-199,.cls-2,.cls-20,.cls-200,.cls-201,.cls-202,.cls-203,.cls-204,.cls-205,.cls-206,.cls-207,.cls-208,.cls-209,.cls-21,.cls-210,.cls-211,.cls-212,.cls-213,.cls-214,.cls-215,.cls-216,.cls-217,.cls-218,.cls-219,.cls-22,.cls-23,.cls-24,.cls-25,.cls-26,.cls-27,.cls-28,.cls-29,.cls-3,.cls-30,.cls-31,.cls-32,.cls-33,.cls-34,.cls-35,.cls-36,.cls-37,.cls-38,.cls-39,.cls-4,.cls-40,.cls-41,.cls-42,.cls-43,.cls-44,.cls-45,.cls-46,.cls-47,.cls-5,.cls-50,.cls-51,.cls-52,.cls-53,.cls-54,.cls-55,.cls-56,.cls-57,.cls-58,.cls-59,.cls-6,.cls-60,.cls-61,.cls-62,.cls-63,.cls-64,.cls-65,.cls-66,.cls-67,.cls-68,.cls-69,.cls-7,.cls-70,.cls-71,.cls-72,.cls-73,.cls-74,.cls-75,.cls-76,.cls-77,.cls-78,.cls-79,.cls-8,.cls-80,.cls-81,.cls-82,.cls-83,.cls-84,.cls-85,.cls-86,.cls-87,.cls-88,.cls-89,.cls-9,.cls-90,.cls-91,.cls-92,.cls-93,.cls-94,.cls-95,.cls-96,.cls-97,.cls-98,.cls-99{fill-rule:evenodd;}.cls-108,.cls-2{fill:#ec9036;}.cls-3{fill:#ceb9a6;}.cls-4{fill:#726358;}.cls-5{fill:#c8b3a1;}.cls-6{fill:#c3ae9c;}.cls-7{fill:#bfa796;}.cls-8{fill:#b6a18e;}.cls-9{fill:#b19c89;}.cls-10{fill:#a99481;}.cls-11{fill:#a28c7a;}.cls-12{fill:#9a8573;}.cls-13{fill:#937e68;}.cls-14{fill:#6c6156;}.cls-15{fill:#6a5c51;}.cls-16{fill:#64594a;}.cls-17{fill:#625348;}.cls-18{fill:#5c4e43;}.cls-19{fill:#57493d;}.cls-20{fill:#524338;}.cls-21{fill:#4c3e32;}.cls-22{fill:#43382c;}.cls-23{fill:#cfbaab;}.cls-24{fill:#d2bdad;}.cls-25{fill:#d4c2b3;}.cls-26{fill:#d6c4b8;}.cls-27{fill:#dbc9ba;}.cls-28{fill:#ddcfbf;}.cls-29{fill:#e3d1c4;}.cls-30{fill:#e8d6cc;}.cls-31{fill:#eadcd2;}.cls-32{fill:#cab5a6;}.cls-33{fill:#c8b3a3;}.cls-34{fill:#c5b0a1;}.cls-35{fill:#c3ae9e;}.cls-36{fill:#c0ac9c;}.cls-37{fill:#bdac99;}.cls-38{fill:#b9a794;}.cls-39{fill:#ddc8b8;}.cls-40{fill:url(#Linear_Gradient_68);}.cls-41{fill:url(#Linear_Gradient_69);}.cls-42{fill:url(#Linear_Gradient_70);}.cls-43{fill:#c3b1a4;}.cls-44{fill:#c4ac9c;}.cls-45{fill:#c0ac99;}.cls-46{fill:#bea996;}.cls-47{fill:#bca794;}.cls-48{fill:url(#Linear_Gradient_71);}.cls-49{fill:url(#Linear_Gradient_72);}.cls-50{fill:#6d5e53;}.cls-51{fill:#67594a;}.cls-52{fill:#625148;}.cls-53{fill:#5b4b3f;}.cls-54{fill:#4c3e2f;}.cls-55{fill:#423326;}.cls-56{fill:#392a1e;}.cls-57{fill:#302115;}.cls-58{fill:#dbcdc0;}.cls-59{fill:#ddcfc2;}.cls-60{fill:#ddcfc4;}.cls-61{fill:#dfd1c7;}.cls-62{fill:#e2d4c9;}.cls-63{fill:#e1d6cc;}.cls-64{fill:#e3d9cf;}.cls-65{fill:#e6dbd4;}.cls-66{fill:#e9ded6;}.cls-67{fill:#ece1d9;}.cls-68{fill:#e4d6cc;}.cls-69{fill:#e7d9d1;}.cls-70{fill:#e9ded4;}.cls-71{fill:#ebe0d9;}.cls-72{fill:#ede6de;}.cls-73{fill:#f3e9e4;}.cls-74{fill:#e8dacd;}.cls-75{fill:url(#Linear_Gradient_73);}.cls-76{fill:#ccbeb4;}.cls-77{fill:#deccc2;}.cls-78{fill:#dfcfc4;}.cls-79{fill:#e3d1c7;}.cls-80{fill:#e2d4c7;}.cls-81{fill:#e4d6c9;}.cls-82{fill:#e7d9cc;}.cls-83{fill:#ebd9cf;}.cls-84{fill:#d8c9bf;}.cls-85{fill:#d9c7bd;}.cls-86{fill:#d5c7ba;}.cls-87{fill:#d3c4b8;}.cls-88{fill:#d4c2b5;}.cls-89{fill:#d1bfb3;}.cls-90{fill:#cebdb0;}.cls-91{fill:#ccbaad;}.cls-92{fill:#cab9a9;}.cls-93{fill:url(#Linear_Gradient_74);}.cls-94{fill:#ebd9cc;}.cls-95{fill:#eadbcf;}.cls-96{fill:#eadbd1;}.cls-97{fill:#ebded6;}.cls-98{fill:#eee3db;}.cls-99{fill:#f1e6e1;}.cls-100{fill:#e8d6c9;}.cls-101{fill:#e4d4c7;}.cls-102{fill:#e3cfc2;}.cls-103{fill:#dfcfbf;}.cls-104{fill:#deccbd;}.cls-105{fill:#dac8b8;}.cls-106,.cls-170{fill:#ffaf61;}.cls-107{fill:#bb6105;}.cls-109{fill:#3a1600;}.cls-110{fill:#e48734;}.cls-111{fill:#d88232;}.cls-112{fill:#d07e2c;}.cls-113{fill:#c67629;}.cls-114{fill:#b76e24;}.cls-115{fill:#ad6621;}.cls-116{fill:#9f5c1c;}.cls-117{fill:#905116;}.cls-118{fill:#804910;}.cls-119{fill:url(#Linear_Gradient_75);}.cls-120{fill:url(#Linear_Gradient_76);}.cls-121{fill:url(#Linear_Gradient_77);}.cls-122{fill:url(#Linear_Gradient_78);}.cls-123{fill:url(#Linear_Gradient_79);}.cls-124{fill:url(#Linear_Gradient_80);}.cls-125{fill:url(#Linear_Gradient_81);}.cls-126{fill:url(#Linear_Gradient_82);}.cls-127{fill:url(#Linear_Gradient_83);}.cls-128{fill:url(#Linear_Gradient_84);}.cls-129{fill:url(#Linear_Gradient_85);}.cls-130{fill:url(#Linear_Gradient_86);}.cls-131{fill:url(#Linear_Gradient_87);}.cls-132{fill:url(#Linear_Gradient_88);}.cls-133{fill:url(#Linear_Gradient_101);}.cls-134{fill:url(#Linear_Gradient_90);}.cls-135{fill:url(#Linear_Gradient_91);}.cls-136{fill:#1e1e1e;}.cls-137{fill:url(#Linear_Gradient_92);}.cls-138,.cls-139{fill:#bebebe;}.cls-140{fill:#ffd5ad;}.cls-141{fill:url(#Linear_Gradient_93);}.cls-142{fill:url(#Linear_Gradient_75-2);}.cls-143{fill:url(#Linear_Gradient_76-2);}.cls-144{fill:url(#Linear_Gradient_77-2);}.cls-145{fill:url(#Linear_Gradient_78-2);}.cls-146{fill:url(#Linear_Gradient_79-2);}.cls-147{fill:url(#Linear_Gradient_80-2);}.cls-148{fill:url(#Linear_Gradient_81-2);}.cls-149{fill:url(#Linear_Gradient_94);}.cls-150{fill:url(#Linear_Gradient_95);}.cls-151{fill:url(#Linear_Gradient_96);}.cls-152{fill:url(#Linear_Gradient_97);}.cls-153{fill:url(#Linear_Gradient_98);}.cls-154{fill:url(#Linear_Gradient_99);}.cls-155{fill:url(#Linear_Gradient_100);}.cls-156{fill:url(#Linear_Gradient_101-2);}.cls-157{fill:url(#Linear_Gradient_90-2);}.cls-158{fill:url(#Linear_Gradient_91-2);}.cls-159{fill:url(#Linear_Gradient_92-2);}.cls-160{fill:#fff3e6;}.cls-161{fill:#77695d;}.cls-162{fill:#7f7166;}.cls-163{fill:#86796b;}.cls-164{fill:#8e8073;}.cls-165{fill:#99877a;}.cls-166{fill:#a18f81;}.cls-167{fill:#ab998c;}.cls-168{fill:#b5a494;}.cls-169{fill:#c0af9f;}.cls-171{fill:#f9a75f;}.cls-172{fill:#eda159;}.cls-173{fill:#e39958;}.cls-174{fill:#d58f53;}.cls-175{fill:#c8874e;}.cls-176{fill:#ba7e47;}.cls-177{fill:#aa7442;}.cls-178{fill:#98693d;}.cls-179{fill:#885e39;}.cls-180{fill:#e68a34;}.cls-181{fill:#e18731;}.cls-182{fill:#dc822e;}.cls-183{fill:#d6802c;}.cls-184{fill:#d17b29;}.cls-185{fill:#c87625;}.cls-186{fill:#c37123;}.cls-187{fill:#ba6b20;}.cls-188{fill:#b3661a;}.cls-189{fill:#dd8532;}.cls-190{fill:#d8802e;}.cls-191{fill:#d37e2c;}.cls-192{fill:#cb792d;}.cls-193{fill:#bd7126;}.cls-194{fill:#b96b24;}.cls-195{fill:url(#Linear_Gradient_102);}.cls-196{fill:url(#Radial_Gradient_13);}.cls-197{fill:url(#Radial_Gradient_14);}.cls-198{fill:#303030;}.cls-199{fill:#989898;}.cls-200{fill:url(#Radial_Gradient_13-2);}.cls-201{fill:url(#Radial_Gradient_14-2);}.cls-202{fill:#ee9443;}.cls-203{fill:#f29c52;}.cls-204{fill:#f2a75f;}.cls-205{fill:#f8ae6d;}.cls-206{fill:#fbb87e;}.cls-207{fill:#fbc28d;}.cls-208{fill:#ffcc9f;}.cls-209{fill:#ffd6b2;}.cls-210{fill:bisque;}.cls-211{fill:#6f6153;}.cls-212{fill:#6e5c4d;}.cls-213{fill:#685648;}.cls-214{fill:#665342;}.cls-215{fill:#614e3d;}.cls-216{fill:#5b4934;}.cls-217{fill:#59432e;}.cls-218{fill:#543b26;}.cls-219{fill:#4f351d;}</style><linearGradient id="Linear_Gradient_68" x1="43.63" y1="31.64" x2="43.63" y2="23.36" gradientUnits="userSpaceOnUse"><stop offset="0" stop-color="#dcc7b8"/><stop offset="0.16" stop-color="#dfc9ba"/><stop offset="0.33" stop-color="#deccbd"/><stop offset="0.5" stop-color="#e3d1c4"/><stop offset="0.66" stop-color="#e6dbd1"/><stop offset="0.83" stop-color="#f1ede7"/><stop offset="1" stop-color="#f6f6f6"/></linearGradient><linearGradient id="Linear_Gradient_69" x1="43.61" y1="94.51" x2="43.61" y2="102.79" gradientUnits="userSpaceOnUse"><stop offset="0" stop-color="#dcc7b8"/><stop offset="0.16" stop-color="#d9c7b5"/><stop offset="0.33" stop-color="#d4c2b3"/><stop offset="0.5" stop-color="#ccbaab"/><stop offset="0.66" stop-color="#bdac99"/><stop offset="0.83" stop-color="#a28c7d"/><stop offset="1" stop-color="#927e6e"/></linearGradient><linearGradient id="Linear_Gradient_70" x1="43.57" y1="39.05" x2="43.57" y2="47.32" gradientUnits="userSpaceOnUse"><stop offset="0" stop-color="#dcc7b8"/><stop offset="0.16" stop-color="#d9c7b8"/><stop offset="0.33" stop-color="#dac4b5"/><stop offset="0.5" stop-color="#d5bfb0"/><stop offset="0.66" stop-color="#cdb8a6"/><stop offset="0.83" stop-color="#bfa796"/><stop offset="1" stop-color="#b39e8b"/></linearGradient><linearGradient id="Linear_Gradient_71" x1="43.59" y1="102.63" x2="43.59" y2="95.52" gradientUnits="userSpaceOnUse"><stop offset="0" stop-color="#685648"/><stop offset="1" stop-color="#c2b0a3"/></linearGradient><linearGradient id="Linear_Gradient_72" x1="43.59" y1="23.53" x2="43.59" y2="31.8" gradientUnits="userSpaceOnUse"><stop offset="0" stop-color="#fcf1ea"/><stop offset="0.03" stop-color="#f4e8e1"/><stop offset="0.09" stop-color="#ecded7"/><stop offset="0.16" stop-color="#eadbd4"/><stop offset="0.33" stop-color="#d5c7bd"/><stop offset="0.5" stop-color="#cbbdb0"/><stop offset="0.66" stop-color="#c6b8ab"/><stop offset="0.83" stop-color="#c4b3a6"/><stop offset="1" stop-color="#c2b0a3"/></linearGradient><linearGradient id="Linear_Gradient_73" x1="48.76" y1="51.51" x2="48.76" y2="47.5" gradientUnits="userSpaceOnUse"><stop offset="0" stop-color="#e7d9cc"/><stop offset="0.16" stop-color="#ebd9cc"/><stop offset="0.33" stop-color="#eadbcf"/><stop offset="0.5" stop-color="#ebded4"/><stop offset="0.66" stop-color="#eee3db"/><stop offset="0.83" stop-color="#f2efec"/><stop offset="1" stop-color="#f6f6f6"/></linearGradient><linearGradient id="Linear_Gradient_74" x1="48.72" y1="47.59" x2="48.72" y2="51.93" gradientUnits="userSpaceOnUse"><stop offset="0" stop-color="#fcf1ea"/><stop offset="0.02" stop-color="#f8ede6"/><stop offset="0.08" stop-color="#eee3dc"/><stop offset="0.16" stop-color="#ebe0d9"/><stop offset="0.33" stop-color="#ddcfc7"/><stop offset="0.5" stop-color="#d5c7bd"/><stop offset="0.66" stop-color="#d0c2b8"/><stop offset="0.83" stop-color="#cdbfb5"/><stop offset="1" stop-color="#cbbdb3"/></linearGradient><linearGradient id="Linear_Gradient_75" x1="44.53" y1="117.66" x2="44.53" y2="125.77" gradientUnits="userSpaceOnUse"><stop offset="0" stop-color="#e08c46"/><stop offset="0.22" stop-color="#6e3e12"/><stop offset="0.42" stop-color="#4d1f00"/><stop offset="0.78" stop-color="#391b01"/><stop offset="1" stop-color="#1e0600"/></linearGradient><linearGradient id="Linear_Gradient_76" x1="44.45" y1="117.77" x2="44.45" y2="125.74" gradientUnits="userSpaceOnUse"><stop offset="0" stop-color="#d1853e"/><stop offset="0.22" stop-color="#804b1b"/><stop offset="0.41" stop-color="#5d3001"/><stop offset="0.76" stop-color="#462103"/><stop offset="1" stop-color="#1d0a00"/></linearGradient><linearGradient id="Linear_Gradient_77" x1="44.37" y1="117.88" x2="44.37" y2="125.71" gradientUnits="userSpaceOnUse"><stop offset="0" stop-color="#bc7634"/><stop offset="0.2" stop-color="#9a612c"/><stop offset="0.4" stop-color="#804b1b"/><stop offset="0.74" stop-color="#533006"/><stop offset="1" stop-color="#240c00"/></linearGradient><linearGradient id="Linear_Gradient_78" x1="44.28" y1="117.99" x2="44.28" y2="125.68" gradientUnits="userSpaceOnUse"><stop offset="0" stop-color="#8f5620"/><stop offset="0.18" stop-color="#cf8547"/><stop offset="0.39" stop-color="#ba7e47"/><stop offset="0.69" stop-color="#774315"/><stop offset="1" stop-color="#301601"/></linearGradient><linearGradient id="Linear_Gradient_79" x1="44.2" y1="118.1" x2="44.2" y2="125.65" gradientUnits="userSpaceOnUse"><stop offset="0" stop-color="#774515"/><stop offset="0.17" stop-color="#ec9c57"/><stop offset="0.39" stop-color="#d99963"/><stop offset="0.66" stop-color="#8a511a"/><stop offset="1" stop-color="#351b03"/></linearGradient><linearGradient id="Linear_Gradient_80" x1="44.12" y1="118.21" x2="44.12" y2="125.63" gradientUnits="userSpaceOnUse"><stop offset="0" stop-color="#6c3b0b"/><stop offset="0.16" stop-color="#f9a95e"/><stop offset="0.38" stop-color="#eba96d"/><stop offset="0.65" stop-color="#93561c"/><stop offset="1" stop-color="#391f03"/></linearGradient><linearGradient id="Linear_Gradient_81" x1="44.04" y1="118.32" x2="44.04" y2="125.6" gradientUnits="userSpaceOnUse"><stop offset="0" stop-color="#633508"/><stop offset="0.16" stop-color="#ffae65"/><stop offset="0.38" stop-color="#f7b076"/><stop offset="0.64" stop-color="#9b5c20"/><stop offset="1" stop-color="#3c1f05"/></linearGradient><linearGradient id="Linear_Gradient_82" x1="37.94" y1="112.19" x2="37.94" y2="131.72" gradientUnits="userSpaceOnUse"><stop offset="0" stop-color="#ad9c8f"/><stop offset="0.28"/><stop offset="0.56"/><stop offset="0.8"/><stop offset="1" stop-color="#747474"/></linearGradient><linearGradient id="Linear_Gradient_83" x1="37.93" y1="112.5" x2="37.93" y2="131.54" gradientUnits="userSpaceOnUse"><stop offset="0" stop-color="#9b8a80"/><stop offset="0.27" stop-color="#050505"/><stop offset="0.54" stop-color="#050505"/><stop offset="0.76" stop-color="#020202"/><stop offset="1" stop-color="#666"/></linearGradient><linearGradient id="Linear_Gradient_84" x1="37.93" y1="112.8" x2="37.93" y2="131.35" gradientUnits="userSpaceOnUse"><stop offset="0" stop-color="#83796e"/><stop offset="0.26" stop-color="#161616"/><stop offset="0.52" stop-color="#191919"/><stop offset="0.72" stop-color="#0c0c0c"/><stop offset="1" stop-color="#565656"/></linearGradient><linearGradient id="Linear_Gradient_85" x1="37.93" y1="113.1" x2="37.93" y2="131.16" gradientUnits="userSpaceOnUse"><stop offset="0" stop-color="#695e56"/><stop offset="0.24" stop-color="#303030"/><stop offset="0.49" stop-color="#303030"/><stop offset="0.67" stop-color="#1f1f1f"/><stop offset="1" stop-color="#404040"/></linearGradient><linearGradient id="Linear_Gradient_86" x1="37.93" y1="113.4" x2="37.93" y2="130.98" gradientUnits="userSpaceOnUse"><stop offset="0" stop-color="#47403a"/><stop offset="0.22" stop-color="#494949"/><stop offset="0.47" stop-color="#494949"/><stop offset="0.62" stop-color="#303030"/><stop offset="1" stop-color="#2a2a2a"/></linearGradient><linearGradient id="Linear_Gradient_87" x1="37.93" y1="113.71" x2="37.93" y2="130.79" gradientUnits="userSpaceOnUse"><stop offset="0" stop-color="#34302a"/><stop offset="0.21" stop-color="#565656"/><stop offset="0.45" stop-color="#595959"/><stop offset="0.59" stop-color="#3b3b3b"/><stop offset="1" stop-color="#191919"/></linearGradient><linearGradient id="Linear_Gradient_88" x1="37.93" y1="114.01" x2="37.93" y2="130.61" gradientUnits="userSpaceOnUse"><stop offset="0" stop-color="#26211f"/><stop offset="0.21" stop-color="#616161"/><stop offset="0.44" stop-color="#636363"/><stop offset="0.56" stop-color="#434343"/><stop offset="1" stop-color="#101010"/></linearGradient><linearGradient id="Linear_Gradient_101" x1="37.93" y1="114.31" x2="37.93" y2="130.42" gradientUnits="userSpaceOnUse"><stop offset="0" stop-color="#1a1616"/><stop offset="0.2" stop-color="#696969"/><stop offset="0.43" stop-color="#6b6b6b"/><stop offset="0.55" stop-color="#494949"/><stop offset="1" stop-color="#060606"/></linearGradient><linearGradient id="Linear_Gradient_90" x1="37.93" y1="114.61" x2="37.93" y2="130.23" gradientUnits="userSpaceOnUse"><stop offset="0" stop-color="#101010"/><stop offset="0.2" stop-color="#6e6e6e"/><stop offset="0.42" stop-color="#717171"/><stop offset="0.53" stop-color="#4f4b4b"/><stop offset="1" stop-color="#030303"/></linearGradient><linearGradient id="Linear_Gradient_91" x1="8.71" y1="113.82" x2="8.71" y2="128.95" gradientUnits="userSpaceOnUse"><stop offset="0" stop-color="#0a0a0a"/><stop offset="0.19" stop-color="#747474"/><stop offset="0.41" stop-color="#767676"/><stop offset="0.52" stop-color="#524e4e"/><stop offset="1" stop-color="#010101"/></linearGradient><linearGradient id="Linear_Gradient_92" x1="8.77" y1="116.89" x2="8.77" y2="119.7" gradientUnits="userSpaceOnUse"><stop offset="0" stop-color="#a1a1a1"/><stop offset="1" stop-color="#8f8f8f"/></linearGradient><linearGradient id="Linear_Gradient_93" x1="46.01" y1="118.38" x2="46.01" y2="122.68" gradientUnits="userSpaceOnUse"><stop offset="0" stop-color="#fabd87"/><stop offset="0.19" stop-color="#ffae67"/><stop offset="0.49" stop-color="#f6b378"/><stop offset="0.7" stop-color="#d58232"/><stop offset="0.89" stop-color="#733800"/><stop offset="1" stop-color="#f6b375"/></linearGradient><linearGradient id="Linear_Gradient_75-2" x1="101.46" y1="117.66" x2="101.46" y2="125.77" xlink:href="#Linear_Gradient_75"/><linearGradient id="Linear_Gradient_76-2" x1="101.54" y1="117.77" x2="101.54" y2="125.74" xlink:href="#Linear_Gradient_76"/><linearGradient id="Linear_Gradient_77-2" x1="101.63" y1="117.88" x2="101.63" y2="125.71" xlink:href="#Linear_Gradient_77"/><linearGradient id="Linear_Gradient_78-2" x1="101.71" y1="117.99" x2="101.71" y2="125.68" xlink:href="#Linear_Gradient_78"/><linearGradient id="Linear_Gradient_79-2" x1="101.79" y1="118.1" x2="101.79" y2="125.65" xlink:href="#Linear_Gradient_79"/><linearGradient id="Linear_Gradient_80-2" x1="101.87" y1="118.21" x2="101.87" y2="125.63" xlink:href="#Linear_Gradient_80"/><linearGradient id="Linear_Gradient_81-2" x1="101.96" y1="118.32" x2="101.96" y2="125.6" xlink:href="#Linear_Gradient_81"/><linearGradient id="Linear_Gradient_94" x1="108.06" y1="112.19" x2="108.06" y2="131.72" gradientUnits="userSpaceOnUse"><stop offset="0" stop-color="#a69487"/><stop offset="0.28"/><stop offset="0.56"/><stop offset="0.8"/><stop offset="1" stop-color="#747474"/></linearGradient><linearGradient id="Linear_Gradient_95" x1="108.06" y1="112.5" x2="108.06" y2="131.54" gradientUnits="userSpaceOnUse"><stop offset="0" stop-color="#93857a"/><stop offset="0.27" stop-color="#050505"/><stop offset="0.54" stop-color="#050505"/><stop offset="0.76" stop-color="#020202"/><stop offset="1" stop-color="#666"/></linearGradient><linearGradient id="Linear_Gradient_96" x1="108.06" y1="112.8" x2="108.06" y2="131.35" gradientUnits="userSpaceOnUse"><stop offset="0" stop-color="#7e7469"/><stop offset="0.26" stop-color="#161616"/><stop offset="0.52" stop-color="#191919"/><stop offset="0.72" stop-color="#0c0c0c"/><stop offset="1" stop-color="#565656"/></linearGradient><linearGradient id="Linear_Gradient_97" x1="108.06" y1="113.1" x2="108.06" y2="131.16" gradientUnits="userSpaceOnUse"><stop offset="0" stop-color="#645951"/><stop offset="0.24" stop-color="#303030"/><stop offset="0.49" stop-color="#303030"/><stop offset="0.67" stop-color="#1f1f1f"/><stop offset="1" stop-color="#404040"/></linearGradient><linearGradient id="Linear_Gradient_98" x1="108.06" y1="113.4" x2="108.06" y2="130.98" gradientUnits="userSpaceOnUse"><stop offset="0" stop-color="#453e38"/><stop offset="0.22" stop-color="#494949"/><stop offset="0.47" stop-color="#494949"/><stop offset="0.62" stop-color="#303030"/><stop offset="1" stop-color="#2a2a2a"/></linearGradient><linearGradient id="Linear_Gradient_99" x1="108.06" y1="113.71" x2="108.06" y2="130.79" gradientUnits="userSpaceOnUse"><stop offset="0" stop-color="#312c2a"/><stop offset="0.21" stop-color="#565656"/><stop offset="0.45" stop-color="#595959"/><stop offset="0.59" stop-color="#3b3b3b"/><stop offset="1" stop-color="#191919"/></linearGradient><linearGradient id="Linear_Gradient_100" x1="108.06" y1="114.01" x2="108.06" y2="130.61" gradientUnits="userSpaceOnUse"><stop offset="0" stop-color="#221f1f"/><stop offset="0.21" stop-color="#616161"/><stop offset="0.44" stop-color="#636363"/><stop offset="0.56" stop-color="#434343"/><stop offset="1" stop-color="#101010"/></linearGradient><linearGradient id="Linear_Gradient_101-2" x1="108.06" y1="114.31" x2="108.06" y2="130.42" xlink:href="#Linear_Gradient_101"/><linearGradient id="Linear_Gradient_90-2" x1="108.06" y1="114.61" x2="108.06" y2="130.23" xlink:href="#Linear_Gradient_90"/><linearGradient id="Linear_Gradient_91-2" x1="78.83" y1="113.82" x2="78.83" y2="128.95" xlink:href="#Linear_Gradient_91"/><linearGradient id="Linear_Gradient_92-2" x1="78.77" y1="116.89" x2="78.77" y2="119.7" xlink:href="#Linear_Gradient_92"/><linearGradient id="Linear_Gradient_102" x1="43.61" y1="16.71" x2="43.61" y2="18.37" gradientUnits="userSpaceOnUse"><stop offset="0" stop-color="#693300"/><stop offset="1" stop-color="#be6b1d"/></linearGradient><radialGradient id="Radial_Gradient_13" cx="54.05" cy="6.39" r="4.03" gradientUnits="userSpaceOnUse"><stop offset="0" stop-color="#fff"/><stop offset="0.41" stop-color="#ffebd3"/><stop offset="0.73" stop-color="#683b0e"/><stop offset="1" stop-color="#f5ccaa"/></radialGradient><radialGradient id="Radial_Gradient_14" cx="54.21" cy="7.22" r="3.02" gradientUnits="userSpaceOnUse"><stop offset="0" stop-color="#ffae67"/><stop offset="1" stop-color="#eb8f37"/></radialGradient><radialGradient id="Radial_Gradient_13-2" cx="91.43" cy="5.9" r="4.03" xlink:href="#Radial_Gradient_13"/><radialGradient id="Radial_Gradient_14-2" cx="91.26" cy="6.72" r="3.02" xlink:href="#Radial_Gradient_14"/></defs><path class="cls-1" d="M51.57,7.05a1.47,1.47,0,0,1,0-.36,1.58,1.58,0,0,1-.22-.8,2.2,2.2,0,0,1,0-.36,1.66,1.66,0,0,1-.21-.79,1.47,1.47,0,0,1,0-.36,1.58,1.58,0,0,1-.22-.8c0-1.1,1.17-2,2.6-2s2.6.89,2.6,2a1.36,1.36,0,0,1-.05.36,1.63,1.63,0,0,1,.22.8,2.2,2.2,0,0,1,0,.36,1.66,1.66,0,0,1,.21.79,1.37,1.37,0,0,1,0,.36,1.63,1.63,0,0,1,.22.8c0,1.1-1.17,2-2.6,2A2.35,2.35,0,0,1,51.57,7.05Z" transform="translate(-29.22 -1.1)"/><polygon class="cls-2" points="21.35 28.8 22.84 7.61 27.47 7.61 27.14 14.23 60.07 14.23 59.91 7.61 64.21 7.61 65.86 28.8 60.07 28.8 60.07 16.71 27.14 16.71 27.14 28.8 21.35 28.8"/><polygon class="cls-3" points="2.11 23.36 0 102.71 87.19 102.71 85.08 23.36 2.11 23.36"/><polygon class="cls-4" points="0.02 102.71 1.71 116.01 85.52 116.01 87.21 102.71 0.02 102.71"/><path class="cls-3" d="M70.19,96.5c33.74,0,42.75,4.26,42.75,7.31-18.43-.17-59.16,0-82.8,0C30.14,100.76,36.44,96.5,70.19,96.5Z" transform="translate(-29.22 -1.1)"/><path class="cls-5" d="M31.62,103.81c23.64,0,61.18-.15,79.61,0,0-2.73-7.3-6.55-41-6.55S31.62,101.08,31.62,103.81Z" transform="translate(-29.22 -1.1)"/><path class="cls-6" d="M33.1,103.81c23.64,0,58-.14,76.43,0,0-2.41-5.6-5.79-39.34-5.79S33.1,101.4,33.1,103.81Z" transform="translate(-29.22 -1.1)"/><path class="cls-7" d="M34.58,103.81c23.64,0,54.82-.12,73.24,0,0-2.1-3.89-5-37.63-5S34.58,101.71,34.58,103.81Z" transform="translate(-29.22 -1.1)"/><path class="cls-8" d="M36.06,103.81c23.64,0,51.63-.1,70.06,0,0-1.78-2.19-4.26-35.93-4.26S36.06,102,36.06,103.81Z" transform="translate(-29.22 -1.1)"/><path class="cls-9" d="M37.54,103.81c23.64,0,48.45-.08,66.87,0,0-1.46-.48-3.5-34.22-3.5S37.54,102.35,37.54,103.81Z" transform="translate(-29.22 -1.1)"/><path class="cls-10" d="M39,103.81c23.65,0,45.27-.07,63.7,0,0-1.15,1.22-2.74-32.52-2.74S39,102.66,39,103.81Z" transform="translate(-29.22 -1.1)"/><path class="cls-11" d="M40.49,103.81c23.65,0,42.08,0,60.51,0,0-.83,2.93-2-30.81-2S40.49,103,40.49,103.81Z" transform="translate(-29.22 -1.1)"/><path class="cls-12" d="M42,103.81c23.65,0,38.9,0,57.33,0,0-.51,4.63-1.22-29.11-1.22S42,103.3,42,103.81Z" transform="translate(-29.22 -1.1)"/><path class="cls-13" d="M70.19,103.35c33.74,0,27.4.27,27.4.46-18.43,0-30.49,0-54.14,0C43.45,103.62,36.44,103.35,70.19,103.35Z" transform="translate(-29.22 -1.1)"/><path class="cls-4" d="M72,109.33c33.61,0,42.58,4.26,42.58,7.31-18.36-.17-58.92,0-82.47,0C32.15,113.59,38.43,109.33,72,109.33Z" transform="translate(-29.22 -1.1)"/><path class="cls-14" d="M33.62,116.64c23.55,0,60.94-.15,79.3,0,0-2.73-7.27-6.55-40.88-6.55S33.62,113.91,33.62,116.64Z" transform="translate(-29.22 -1.1)"/><path class="cls-15" d="M35.1,116.64c23.54,0,57.77-.14,76.12,0,0-2.41-5.57-5.79-39.18-5.79S35.1,114.23,35.1,116.64Z" transform="translate(-29.22 -1.1)"/><path class="cls-16" d="M36.57,116.64c23.55,0,54.6-.12,72.95,0,0-2.1-3.87-5-37.48-5S36.57,114.54,36.57,116.64Z" transform="translate(-29.22 -1.1)"/><path class="cls-17" d="M38,116.64c23.55,0,51.43-.1,69.78,0,0-1.78-2.17-4.27-35.78-4.27S38,114.86,38,116.64Z" transform="translate(-29.22 -1.1)"/><path class="cls-18" d="M39.51,116.64c23.55,0,48.26-.08,66.61,0,0-1.46-.47-3.51-34.08-3.51S39.51,115.18,39.51,116.64Z" transform="translate(-29.22 -1.1)"/><path class="cls-19" d="M41,116.64c23.55,0,45.08-.07,63.44,0,0-1.14,1.22-2.74-32.39-2.74S41,115.5,41,116.64Z" transform="translate(-29.22 -1.1)"/><path class="cls-20" d="M42.46,116.64c23.55,0,41.91,0,60.27,0,0-.83,2.92-2-30.69-2S42.46,115.81,42.46,116.64Z" transform="translate(-29.22 -1.1)"/><path class="cls-21" d="M43.93,116.64c23.55,0,38.74,0,57.1,0,0-.51,4.62-1.22-29-1.22S43.93,116.13,43.93,116.64Z" transform="translate(-29.22 -1.1)"/><path class="cls-22" d="M72,116.18c33.61,0,27.29.27,27.29.46-18.35,0-30.38,0-53.92,0C45.41,116.45,38.43,116.18,72,116.18Z" transform="translate(-29.22 -1.1)"/><path class="cls-3" d="M71.42,32.17C105,32.17,114,27.91,114,24.86c-18.33.17-58.85,0-82.37,0C31.58,27.91,37.85,32.17,71.42,32.17Z" transform="translate(-29.22 -1.1)"/><path class="cls-23" d="M33.05,24.86c0,2.73,4.8,6.55,38.37,6.55s40.84-3.82,40.84-6.55C93.92,25,56.57,24.9,33.05,24.86Z" transform="translate(-29.22 -1.1)"/><path class="cls-24" d="M34.52,24.86c0,2.41,3.33,5.79,36.9,5.79s39.14-3.38,39.14-5.79C92.23,25,58.05,24.9,34.52,24.86Z" transform="translate(-29.22 -1.1)"/><path class="cls-25" d="M36,24.86c0,2.1,1.86,5,35.43,5s37.44-2.93,37.44-5C90.53,25,59.52,24.89,36,24.86Z" transform="translate(-29.22 -1.1)"/><path class="cls-26" d="M37.47,24.86c0,1.78.38,4.26,34,4.26s35.75-2.48,35.75-4.26C88.83,25,61,24.89,37.47,24.86Z" transform="translate(-29.22 -1.1)"/><path class="cls-27" d="M38.94,24.86c0,1.46-1.09,3.5,32.48,3.5s34.05-2,34.05-3.5C87.14,24.94,62.46,24.88,38.94,24.86Z" transform="translate(-29.22 -1.1)"/><path class="cls-28" d="M40.41,24.86c0,1.15-2.56,2.74,31,2.74s32.35-1.59,32.35-2.74C85.44,24.93,63.93,24.88,40.41,24.86Z" transform="translate(-29.22 -1.1)"/><path class="cls-29" d="M41.88,24.86c0,.83-4,2,29.54,2s30.66-1.15,30.66-2C83.75,24.91,65.4,24.87,41.88,24.86Z" transform="translate(-29.22 -1.1)"/><path class="cls-30" d="M43.35,24.86c0,.51-5.5,1.22,28.07,1.22s29-.71,29-1.22C82.05,24.89,66.87,24.87,43.35,24.86Z" transform="translate(-29.22 -1.1)"/><path class="cls-31" d="M71.42,25.32c33.57,0,27.26-.27,27.26-.46-18.33,0-30.34,0-53.86,0C44.82,25.05,37.85,25.32,71.42,25.32Z" transform="translate(-29.22 -1.1)"/><path class="cls-3" d="M73.22,40.62c31,0,39.25,4.27,39.25,7.31-16.92-.17-54.31,0-76,0C36.45,44.89,42.24,40.62,73.22,40.62Z" transform="translate(-29.22 -1.1)"/><path class="cls-32" d="M37.81,47.93c21.71,0,56.17-.15,73.09,0,0-2.73-6.7-6.54-37.68-6.54S37.81,45.2,37.81,47.93Z" transform="translate(-29.22 -1.1)"/><path class="cls-33" d="M39.17,47.93c21.7,0,53.25-.13,70.16,0,0-2.41-5.13-5.78-36.11-5.78S39.17,45.52,39.17,47.93Z" transform="translate(-29.22 -1.1)"/><path class="cls-5" d="M40.53,47.93c21.7,0,50.32-.12,67.24,0,0-2.09-3.57-5-34.55-5S40.53,45.84,40.53,47.93Z" transform="translate(-29.22 -1.1)"/><path class="cls-34" d="M41.88,47.93c21.71,0,47.41-.1,64.32,0,0-1.78-2-4.26-33-4.26S41.88,46.15,41.88,47.93Z" transform="translate(-29.22 -1.1)"/><path class="cls-35" d="M43.24,47.93c21.71,0,44.48-.08,61.4,0,0-1.46-.44-3.5-31.42-3.5S43.24,46.47,43.24,47.93Z" transform="translate(-29.22 -1.1)"/><path class="cls-36" d="M44.6,47.93c21.7,0,41.55-.06,58.47,0,0-1.14,1.13-2.74-29.85-2.74S44.6,46.79,44.6,47.93Z" transform="translate(-29.22 -1.1)"/><path class="cls-37" d="M46,47.93c21.7,0,38.63,0,55.54,0,0-.83,2.7-2-28.28-2S46,47.1,46,47.93Z" transform="translate(-29.22 -1.1)"/><path class="cls-7" d="M47.31,47.93c21.71,0,35.71,0,52.63,0,0-.51,4.26-1.22-26.72-1.22S47.31,47.42,47.31,47.93Z" transform="translate(-29.22 -1.1)"/><path class="cls-38" d="M73.22,47.47c31,0,25.15.27,25.15.46H48.67C48.67,47.74,42.24,47.47,73.22,47.47Z" transform="translate(-29.22 -1.1)"/><polygon class="cls-39" points="35.52 23.36 35.11 102.71 52.08 102.71 51.67 23.36 35.52 23.36"/><polygon class="cls-40" points="35.52 23.36 35.6 31.62 51.75 31.62 51.67 23.36 35.52 23.36"/><polygon class="cls-41" points="35.08 102.8 35.17 94.53 52.13 94.53 52.05 102.8 35.08 102.8"/><polygon class="cls-42" points="35.41 47.33 35.5 39.06 51.47 39.06 51.72 47.33 35.41 47.33"/><polygon class="cls-43" points="43.08 23.36 43.05 102.71 44.14 102.71 44.11 23.36 43.08 23.36"/><path class="cls-3" d="M38,65.34c.69-30.71-3.38-39.12-6.43-39.28-.21,16.78-1.17,53.84-1.69,75.36C33,101.57,37.35,96.06,38,65.34Z" transform="translate(-29.22 -1.1)"/><path class="cls-23" d="M29.94,100.07c2.73.14,6.65-4,7.34-34.76s-3-37.55-5.7-37.7C31.35,44.39,30.47,78.56,29.94,100.07Z" transform="translate(-29.22 -1.1)"/><path class="cls-24" d="M30,98.72c2.41.13,5.85-2.74,6.54-33.45s-2.57-36-5-36.1C31.3,45.94,30.49,77.21,30,98.72Z" transform="translate(-29.22 -1.1)"/><path class="cls-25" d="M30,97.38c2.09.11,5.06-1.44,5.75-32.15s-2.16-34.4-4.25-34.51C31.24,47.5,30.52,75.86,30,97.38Z" transform="translate(-29.22 -1.1)"/><path class="cls-26" d="M30,96c1.77.09,4.27-.13,5-30.84s-1.75-32.83-3.53-32.92C31.19,49.05,30.55,74.51,30,96Z" transform="translate(-29.22 -1.1)"/><path class="cls-27" d="M30.07,94.69c1.46.07,3.48,1.17,4.17-29.54S32.9,33.9,31.44,33.82C31.14,50.6,30.57,73.17,30.07,94.69Z" transform="translate(-29.22 -1.1)"/><path class="cls-28" d="M30.1,93.34c1.14.06,2.69,2.48,3.38-28.23s-.94-29.68-2.08-29.74C31.09,52.15,30.6,71.82,30.1,93.34Z" transform="translate(-29.22 -1.1)"/><path class="cls-29" d="M30.13,92C31,92,32,95.78,32.72,65.07S32.19,37,31.37,36.93C31,53.7,30.62,70.48,30.13,92Z" transform="translate(-29.22 -1.1)"/><path class="cls-30" d="M30.16,90.65c.51,0,1.11,5.09,1.8-25.62s-.12-26.52-.63-26.55C31,55.25,30.65,69.13,30.16,90.65Z" transform="translate(-29.22 -1.1)"/><path class="cls-31" d="M31.2,65c.69-30.71.29-24.95.1-25-.37,16.77-.63,27.76-1.11,49.27C30.38,89.31,30.5,95.7,31.2,65Z" transform="translate(-29.22 -1.1)"/><path class="cls-3" d="M107.45,64.73c-.85-30.71,3.19-39.13,6.24-39.29.29,16.78,1.43,53.84,2.07,75.35C112.71,101,108.29,95.44,107.45,64.73Z" transform="translate(-29.22 -1.1)"/><path class="cls-32" d="M115.72,99.45c-.63-21.52-1.68-55.68-2-72.46-2.73.14-6.36,7-5.52,37.7S113,99.59,115.72,99.45Z" transform="translate(-29.22 -1.1)"/><path class="cls-33" d="M115.68,98.1c-.62-21.51-1.58-52.78-1.91-69.55-2.41.12-5.64,5.39-4.8,36.1S113.27,98.23,115.68,98.1Z" transform="translate(-29.22 -1.1)"/><path class="cls-5" d="M115.65,96.76c-.62-21.52-1.49-49.89-1.84-66.66-2.09.11-4.92,3.8-4.08,34.51S113.55,96.87,115.65,96.76Z" transform="translate(-29.22 -1.1)"/><path class="cls-34" d="M115.61,95.41c-.62-21.51-1.39-47-1.75-63.76-1.78.09-4.21,2.21-3.37,32.92S113.83,95.5,115.61,95.41Z" transform="translate(-29.22 -1.1)"/><path class="cls-6" d="M115.57,94.06C115,72.55,114.28,50,113.9,33.2c-1.46.08-3.49.62-2.65,31.33S114.11,94.14,115.57,94.06Z" transform="translate(-29.22 -1.1)"/><path class="cls-44" d="M115.53,92.72c-.6-21.52-1.19-41.19-1.59-58-1.14.06-2.77-1-1.93,29.74S114.39,92.78,115.53,92.72Z" transform="translate(-29.22 -1.1)"/><path class="cls-45" d="M115.5,91.37c-.6-21.51-1.1-38.29-1.51-55.06-.83,0-2.06-2.57-1.22,28.14S114.67,91.42,115.5,91.37Z" transform="translate(-29.22 -1.1)"/><path class="cls-46" d="M115.46,90c-.6-21.52-1-35.4-1.43-52.17-.51,0-1.34-4.16-.5,26.55S115,90.05,115.46,90Z" transform="translate(-29.22 -1.1)"/><path class="cls-47" d="M114.3,64.37c-.85-30.71-.42-25-.23-25,.45,16.77.76,27.75,1.35,49.27C115.23,88.69,115.14,95.08,114.3,64.37Z" transform="translate(-29.22 -1.1)"/><rect class="cls-48" x="43.05" y="95.52" width="1.08" height="7.2"/><rect class="cls-49" x="43.08" y="23.36" width="1.04" height="8.45"/><path class="cls-4" d="M37.69,107c4.29,0,5.43,3.38,5.43,5.79-2.34-.13-7.52,0-10.52,0C32.6,110.39,33.4,107,37.69,107Z" transform="translate(-29.22 -1.1)"/><path class="cls-50" d="M32.79,112.8c3,0,7.78-.12,10.12,0,0-2.16-.93-5.26-5.22-5.26S32.79,110.64,32.79,112.8Z" transform="translate(-29.22 -1.1)"/><path class="cls-51" d="M33,112.8c3,0,7.38-.1,9.72,0,0-1.91-.72-4.72-5-4.72S33,110.89,33,112.8Z" transform="translate(-29.22 -1.1)"/><path class="cls-52" d="M33.16,112.8c3,0,7-.09,9.31,0,0-1.66-.5-4.19-4.79-4.19S33.16,111.14,33.16,112.8Z" transform="translate(-29.22 -1.1)"/><path class="cls-53" d="M33.35,112.8c3,0,6.56-.08,8.91,0,0-1.4-.29-3.66-4.58-3.66S33.35,111.4,33.35,112.8Z" transform="translate(-29.22 -1.1)"/><path class="cls-20" d="M33.54,112.8c3,0,6.16-.06,8.5,0,0-1.15-.08-3.12-4.37-3.12S33.54,111.65,33.54,112.8Z" transform="translate(-29.22 -1.1)"/><path class="cls-54" d="M33.73,112.8c3,0,5.75,0,8.09,0,0-.9.14-2.59-4.15-2.59S33.73,111.9,33.73,112.8Z" transform="translate(-29.22 -1.1)"/><path class="cls-55" d="M33.91,112.8c3,0,5.35,0,7.7,0,0-.65.35-2.06-3.94-2.06S33.91,112.15,33.91,112.8Z" transform="translate(-29.22 -1.1)"/><path class="cls-56" d="M34.1,112.8c3,0,4.95,0,7.29,0,0-.4.57-1.52-3.72-1.52S34.1,112.4,34.1,112.8Z" transform="translate(-29.22 -1.1)"/><path class="cls-57" d="M37.66,111.81c4.29,0,3.51.84,3.51,1H34.29C34.29,112.65,33.37,111.81,37.66,111.81Z" transform="translate(-29.22 -1.1)"/><polygon class="cls-58" points="5.13 88.81 6.23 47.33 91.22 47.33 92.32 88.81 5.13 88.81"/><polygon class="cls-4" points="5.15 88.81 6.84 102.11 90.65 102.11 92.34 88.81 5.15 88.81"/><path class="cls-58" d="M75.32,82.6c33.74,0,42.75,4.26,42.75,7.31-18.43-.17-59.16,0-82.8,0C35.27,86.86,41.58,82.6,75.32,82.6Z" transform="translate(-29.22 -1.1)"/><path class="cls-59" d="M36.75,89.91c23.64,0,61.19-.16,79.61,0,0-2.73-7.3-6.55-41-6.55S36.75,87.18,36.75,89.91Z" transform="translate(-29.22 -1.1)"/><path class="cls-60" d="M38.23,89.91c23.64,0,58-.14,76.43,0,0-2.41-5.6-5.79-39.34-5.79S38.23,87.5,38.23,89.91Z" transform="translate(-29.22 -1.1)"/><path class="cls-61" d="M39.71,89.91c23.64,0,54.82-.12,73.24,0,0-2.1-3.89-5-37.63-5S39.71,87.81,39.71,89.91Z" transform="translate(-29.22 -1.1)"/><path class="cls-62" d="M41.19,89.91c23.64,0,51.63-.1,70.06,0,0-1.78-2.19-4.27-35.93-4.27S41.19,88.13,41.19,89.91Z" transform="translate(-29.22 -1.1)"/><path class="cls-63" d="M42.66,89.91c23.65,0,48.45-.08,66.88,0,0-1.46-.48-3.5-34.22-3.5S42.66,88.45,42.66,89.91Z" transform="translate(-29.22 -1.1)"/><path class="cls-64" d="M44.14,89.91c23.65,0,45.27-.07,63.7,0,0-1.15,1.22-2.74-32.52-2.74S44.14,88.76,44.14,89.91Z" transform="translate(-29.22 -1.1)"/><path class="cls-65" d="M45.62,89.91c23.65,0,42.08,0,60.51,0,0-.83,2.93-2-30.81-2S45.62,89.08,45.62,89.91Z" transform="translate(-29.22 -1.1)"/><path class="cls-66" d="M47.1,89.91c23.65,0,38.9,0,57.33,0,0-.51,4.63-1.22-29.11-1.22S47.1,89.4,47.1,89.91Z" transform="translate(-29.22 -1.1)"/><path class="cls-67" d="M75.32,89.45c33.74,0,27.4.27,27.4.46H48.58C48.58,89.72,41.58,89.45,75.32,89.45Z" transform="translate(-29.22 -1.1)"/><path class="cls-58" d="M77.17,55.9c33.58,0,42.54-4.26,42.54-7.31-18.34.17-58.86,0-82.38,0C37.33,51.64,43.6,55.9,77.17,55.9Z" transform="translate(-29.22 -1.1)"/><path class="cls-59" d="M38.8,48.59c0,2.73,4.8,6.55,38.37,6.55S118,51.32,118,48.59C99.68,48.74,62.33,48.63,38.8,48.59Z" transform="translate(-29.22 -1.1)"/><path class="cls-61" d="M40.28,48.59c0,2.41,3.32,5.79,36.89,5.79s39.14-3.38,39.14-5.79C98,48.73,63.8,48.63,40.28,48.59Z" transform="translate(-29.22 -1.1)"/><path class="cls-62" d="M41.75,48.59c0,2.1,1.85,5,35.42,5s37.45-2.93,37.45-5C96.28,48.71,65.27,48.62,41.75,48.59Z" transform="translate(-29.22 -1.1)"/><path class="cls-68" d="M43.22,48.59c0,1.78.38,4.27,34,4.27s35.75-2.49,35.75-4.27C94.59,48.69,66.74,48.62,43.22,48.59Z" transform="translate(-29.22 -1.1)"/><path class="cls-69" d="M44.69,48.59c0,1.46-1.09,3.5,32.48,3.5s34.05-2,34.05-3.5C92.89,48.67,68.21,48.61,44.69,48.59Z" transform="translate(-29.22 -1.1)"/><path class="cls-70" d="M46.16,48.59c0,1.15-2.56,2.74,31,2.74s32.36-1.59,32.36-2.74C91.19,48.66,69.68,48.61,46.16,48.59Z" transform="translate(-29.22 -1.1)"/><path class="cls-71" d="M47.63,48.59c0,.83-4,2,29.54,2s30.66-1.15,30.66-2C89.5,48.64,71.15,48.6,47.63,48.59Z" transform="translate(-29.22 -1.1)"/><path class="cls-72" d="M49.1,48.59c0,.51-5.5,1.22,28.07,1.22s29-.71,29-1.22C87.8,48.62,72.63,48.6,49.1,48.59Z" transform="translate(-29.22 -1.1)"/><path class="cls-73" d="M77.17,49.05c33.58,0,27.27-.27,27.27-.46H50.57C50.57,48.78,43.6,49.05,77.17,49.05Z" transform="translate(-29.22 -1.1)"/><polygon class="cls-74" points="40.65 47.99 40.24 88.81 57.21 88.81 56.8 47.99 40.65 47.99"/><polygon class="cls-75" points="40.65 47.5 40.73 51.5 56.88 51.5 56.8 47.5 40.65 47.5"/><polygon class="cls-76" points="48.21 47.66 48.18 88.81 49.27 88.81 49.24 47.66 48.21 47.66"/><path class="cls-58" d="M42.78,68.8c.35-15.93-3.82-20.29-6.87-20.37,0,8.7-.58,27.92-.86,39.09C38.09,87.6,42.42,84.74,42.78,68.8Z" transform="translate(-29.22 -1.1)"/><path class="cls-77" d="M35.06,86.82c2.73.07,6.6-2.1,7-18s-3.4-19.48-6.13-19.55C35.85,57.94,35.34,75.66,35.06,86.82Z" transform="translate(-29.22 -1.1)"/><path class="cls-59" d="M35.08,86.12c2.41.06,5.82-1.42,6.17-17.36S38.29,50.1,35.87,50C35.82,58.74,35.36,75,35.08,86.12Z" transform="translate(-29.22 -1.1)"/><path class="cls-78" d="M35.09,85.42c2.1.06,5-.74,5.4-16.68S38,50.9,35.86,50.84C35.78,59.54,35.37,74.26,35.09,85.42Z" transform="translate(-29.22 -1.1)"/><path class="cls-79" d="M35.11,84.72c1.78,0,4.27-.06,4.62-16s-2.11-17-3.89-17.07C35.74,60.35,35.38,73.56,35.11,84.72Z" transform="translate(-29.22 -1.1)"/><path class="cls-80" d="M35.12,84c1.46,0,3.5.61,3.85-15.33s-1.69-16.21-3.15-16.25C35.71,61.15,35.39,72.86,35.12,84Z" transform="translate(-29.22 -1.1)"/><path class="cls-81" d="M35.14,83.33c1.14,0,2.72,1.28,3.07-14.65S37,53.29,35.8,53.26C35.67,62,35.4,72.16,35.14,83.33Z" transform="translate(-29.22 -1.1)"/><path class="cls-82" d="M35.15,82.63c.83,0,1.94,2,2.3-14s-.84-14.58-1.66-14.6C35.64,62.76,35.41,71.47,35.15,82.63Z" transform="translate(-29.22 -1.1)"/><path class="cls-83" d="M35.17,81.93c.51,0,1.16,2.64,1.52-13.29s-.41-13.76-.92-13.77C35.6,63.57,35.42,70.77,35.17,81.93Z" transform="translate(-29.22 -1.1)"/><path class="cls-31" d="M35.92,68.62c.36-15.93,0-12.94-.17-13-.18,8.7-.32,14.4-.56,25.56C35.38,81.24,35.57,84.55,35.92,68.62Z" transform="translate(-29.22 -1.1)"/><path class="cls-58" d="M113.34,68.56c-.33-15.61,3.85-19.89,6.9-20,0,8.53.54,27.37.81,38.31C118,87,113.68,84.17,113.34,68.56Z" transform="translate(-29.22 -1.1)"/><path class="cls-84" d="M121,86.21c-.27-10.93-.76-28.3-.79-36.83-2.73.07-6.48,3.55-6.15,19.16S118.31,86.28,121,86.21Z" transform="translate(-29.22 -1.1)"/><path class="cls-85" d="M121,85.53c-.26-10.94-.7-26.83-.75-35.36-2.41.06-5.74,2.74-5.4,18.35S118.61,85.59,121,85.53Z" transform="translate(-29.22 -1.1)"/><path class="cls-86" d="M121,84.84c-.26-10.93-.66-25.35-.72-33.88-2.1,0-5,1.93-4.66,17.54S118.91,84.9,121,84.84Z" transform="translate(-29.22 -1.1)"/><path class="cls-87" d="M121,84.16c-.25-10.94-.61-23.88-.69-32.41-1.78,0-4.24,1.12-3.91,16.73S119.22,84.21,121,84.16Z" transform="translate(-29.22 -1.1)"/><path class="cls-88" d="M121,83.47c-.25-10.93-.56-22.41-.66-30.93-1.46,0-3.5.31-3.17,15.92S119.52,83.51,121,83.47Z" transform="translate(-29.22 -1.1)"/><path class="cls-89" d="M121,82.79c-.24-10.94-.51-20.94-.62-29.46-1.15,0-2.76-.5-2.43,15.11S119.82,82.82,121,82.79Z" transform="translate(-29.22 -1.1)"/><path class="cls-90" d="M121,82.11c-.24-10.94-.46-19.47-.6-28-.82,0-2-1.3-1.68,14.31S120.12,82.13,121,82.11Z" transform="translate(-29.22 -1.1)"/><path class="cls-91" d="M120.93,81.42c-.23-10.94-.41-18-.56-26.52-.51,0-1.27-2.11-.93,13.5S120.43,81.44,120.93,81.42Z" transform="translate(-29.22 -1.1)"/><path class="cls-92" d="M120.2,68.38c-.33-15.61,0-12.68.19-12.69.17,8.53.29,14.11.53,25C120.73,80.74,120.53,84,120.2,68.38Z" transform="translate(-29.22 -1.1)"/><polygon class="cls-93" points="48.2 51.93 48.21 47.5 49.24 47.5 49.24 51.93 48.2 51.93"/><path class="cls-74" d="M82.35,69.92c-.07-14.26-2-18.08-3.31-18.09.1,7.79.13,25,.15,35C80.54,86.84,82.41,84.18,82.35,69.92Z" transform="translate(-29.22 -1.1)"/><path class="cls-94" d="M79.19,86.2c1.2,0,2.88-2,2.82-16.28s-1.77-17.36-3-17.37C79.14,60.34,79.16,76.21,79.19,86.2Z" transform="translate(-29.22 -1.1)"/><path class="cls-95" d="M79.19,85.58c1.06,0,2.54-1.4,2.48-15.67S80.11,53.27,79,53.27C79.14,61.06,79.16,75.58,79.19,85.58Z" transform="translate(-29.22 -1.1)"/><path class="cls-96" d="M79.18,85c.93,0,2.22-.77,2.16-15S80,54,79,54C79.13,61.78,79.15,75,79.18,85Z" transform="translate(-29.22 -1.1)"/><path class="cls-70" d="M79.18,84.33c.78,0,1.88-.15,1.82-14.42s-1.17-15.19-2-15.2C79.13,62.5,79.14,74.33,79.18,84.33Z" transform="translate(-29.22 -1.1)"/><path class="cls-97" d="M79.18,83.7c.64,0,1.55.47,1.48-13.79s-1-14.47-1.61-14.48C79.12,63.22,79.14,73.71,79.18,83.7Z" transform="translate(-29.22 -1.1)"/><path class="cls-71" d="M79.17,83.08c.51,0,1.22,1.09,1.16-13.17s-.77-13.76-1.28-13.76C79.12,63.94,79.14,73.08,79.17,83.08Z" transform="translate(-29.22 -1.1)"/><path class="cls-98" d="M79.17,82.45c.37,0,.88,1.72.82-12.55s-.57-13-.93-13C79.11,64.66,79.13,72.45,79.17,82.45Z" transform="translate(-29.22 -1.1)"/><path class="cls-72" d="M79.17,81.83c.22,0,.55,2.34.49-11.93s-.37-12.3-.6-12.31C79.11,65.38,79.13,71.83,79.17,81.83Z" transform="translate(-29.22 -1.1)"/><path class="cls-99" d="M79.32,69.9c-.06-14.27-.17-11.59-.25-11.59,0,7.79.05,12.9.1,22.89C79.25,81.2,79.38,84.16,79.32,69.9Z" transform="translate(-29.22 -1.1)"/><path class="cls-74" d="M74.07,69.45c.07-14.51,2-18.4,3.31-18.41-.11,7.93-.13,25.45-.15,35.61C75.88,86.66,74,84,74.07,69.45Z" transform="translate(-29.22 -1.1)"/><path class="cls-100" d="M77.23,86c0-10.17,0-26.32.15-34.24-1.21,0-2.91,3.16-3,17.67S76,86,77.23,86Z" transform="translate(-29.22 -1.1)"/><path class="cls-101" d="M77.23,85.38c0-10.17,0-24.94.15-32.87-1.07,0-2.57,2.43-2.64,16.94S76.17,85.39,77.23,85.38Z" transform="translate(-29.22 -1.1)"/><path class="cls-101" d="M77.23,84.75c0-10.17.06-23.58.14-31.51-.92,0-2.23,1.69-2.29,16.2S76.31,84.75,77.23,84.75Z" transform="translate(-29.22 -1.1)"/><path class="cls-29" d="M77.24,84.11c0-10.17.05-22.21.13-30.13-.79,0-1.89,1-2,15.46S76.45,84.11,77.24,84.11Z" transform="translate(-29.22 -1.1)"/><path class="cls-102" d="M77.24,83.47c0-10.16.06-20.83.12-28.76-.64,0-1.54.22-1.61,14.73S76.6,83.48,77.24,83.47Z" transform="translate(-29.22 -1.1)"/><path class="cls-103" d="M77.24,82.84c0-10.17.06-19.47.12-27.39-.5,0-1.21-.52-1.27,14S76.74,82.84,77.24,82.84Z" transform="translate(-29.22 -1.1)"/><path class="cls-104" d="M77.25,82.2c0-10.17,0-18.1.11-26-.37,0-.87-1.26-.93,13.26S76.88,82.2,77.25,82.2Z" transform="translate(-29.22 -1.1)"/><path class="cls-27" d="M77.25,81.57c0-10.17.06-16.73.1-24.66-.22,0-.52-2-.59,12.52S77,81.57,77.25,81.57Z" transform="translate(-29.22 -1.1)"/><path class="cls-105" d="M77.1,69.43c.06-14.51.17-11.78.25-11.79,0,7.93,0,13.12-.1,23.29C77.17,80.93,77,83.94,77.1,69.43Z" transform="translate(-29.22 -1.1)"/><polygon class="cls-2" points="14.11 119.65 12.45 99.95 74.71 99.95 73.39 119.65 68.4 119.65 69.27 103.42 17.83 103.42 19 119.65 14.11 119.65"/><rect class="cls-106" x="12.54" y="95.98" width="62.22" height="3.97"/><rect class="cls-107" x="18.16" y="107.07" width="50.81" height="2.81"/><rect class="cls-108" x="14.69" y="109.89" width="58.42" height="2.15"/><path class="cls-109" d="M40,113h-4.3a3.32,3.32,0,0,0-3.15,2.32v-.88A3.16,3.16,0,0,1,35.42,111h4.82a3.16,3.16,0,0,1,2.88,3.37v.88A3.3,3.3,0,0,0,40,113Z" transform="translate(-29.22 -1.1)"/><path class="cls-2" d="M47.64,115.77c-.35-5.37-3.59-6.93-5.27-6.94.28,2.94.62,9.43.84,13.19C44.89,122,48,121.15,47.64,115.77Z" transform="translate(-29.22 -1.1)"/><path class="cls-110" d="M43.19,121.79c1.51,0,4.44-.62,4.1-6-.35-5.08-3.31-6.47-4.88-6.51C42.68,112.22,43,118,43.19,121.79Z" transform="translate(-29.22 -1.1)"/><path class="cls-111" d="M43.18,121.55c1.33,0,4.1-.36,3.76-5.73-.35-4.78-3-6-4.5-6.08C42.7,112.68,43,117.78,43.18,121.55Z" transform="translate(-29.22 -1.1)"/><path class="cls-112" d="M43.17,121.32c1.15,0,3.76-.1,3.42-5.48-.35-4.48-2.75-5.54-4.11-5.64C42.73,113.13,42.94,117.55,43.17,121.32Z" transform="translate(-29.22 -1.1)"/><path class="cls-113" d="M43.15,121.08c1,0,3.43.16,3.09-5.21-.36-4.18-2.47-5.08-3.73-5.22C42.75,113.59,42.92,117.31,43.15,121.08Z" transform="translate(-29.22 -1.1)"/><path class="cls-114" d="M43.13,120.85c.81,0,3.1.42,2.76-5-.36-3.88-2.19-4.62-3.34-4.78C42.78,114,42.91,117.08,43.13,120.85Z" transform="translate(-29.22 -1.1)"/><path class="cls-115" d="M43.12,120.61c.63,0,2.77.68,2.42-4.7-.36-3.58-1.91-4.15-2.95-4.34C42.81,114.5,42.89,116.84,43.12,120.61Z" transform="translate(-29.22 -1.1)"/><path class="cls-116" d="M43.1,120.37c.46,0,2.44.94,2.09-4.43-.37-3.29-1.63-3.69-2.57-3.92C42.83,115,42.87,116.61,43.1,120.37Z" transform="translate(-29.22 -1.1)"/><path class="cls-117" d="M43.09,120.14c.28,0,2.1,1.2,1.76-4.18-.38-3-1.36-3.23-2.19-3.48C42.86,115.41,42.85,116.37,43.09,120.14Z" transform="translate(-29.22 -1.1)"/><path class="cls-118" d="M44.5,116c-.38-2.68-1.08-2.76-1.81-3,.19,2.94.15,3.2.39,7C43.18,119.9,44.84,121.36,44.5,116Z" transform="translate(-29.22 -1.1)"/><path class="cls-4" d="M108,107.34c4.29,0,5.43,3.38,5.43,5.79-2.34-.13-7.52,0-10.52,0C102.87,110.72,103.67,107.34,108,107.34Z" transform="translate(-29.22 -1.1)"/><path class="cls-50" d="M103.05,113.13c3,0,7.78-.12,10.13,0,0-2.16-.94-5.26-5.23-5.26S103.05,111,103.05,113.13Z" transform="translate(-29.22 -1.1)"/><path class="cls-51" d="M103.24,113.13c3,0,7.38-.1,9.72,0,0-1.91-.72-4.72-5-4.72S103.24,111.22,103.24,113.13Z" transform="translate(-29.22 -1.1)"/><path class="cls-52" d="M103.43,113.13c3,0,7-.09,9.31,0,0-1.65-.5-4.19-4.79-4.19S103.43,111.48,103.43,113.13Z" transform="translate(-29.22 -1.1)"/><path class="cls-53" d="M103.62,113.13c3,0,6.56-.08,8.91,0,0-1.4-.29-3.66-4.58-3.66S103.62,111.73,103.62,113.13Z" transform="translate(-29.22 -1.1)"/><path class="cls-20" d="M103.81,113.13c3,0,6.16-.06,8.5,0,0-1.15-.08-3.12-4.37-3.12S103.81,112,103.81,113.13Z" transform="translate(-29.22 -1.1)"/><path class="cls-54" d="M104,113.13c3,0,5.76,0,8.1,0,0-.9.14-2.59-4.15-2.59S104,112.23,104,113.13Z" transform="translate(-29.22 -1.1)"/><path class="cls-55" d="M104.18,113.13c3,0,5.35,0,7.69,0,0-.65.36-2.06-3.93-2.06S104.18,112.48,104.18,113.13Z" transform="translate(-29.22 -1.1)"/><path class="cls-56" d="M104.37,113.13c3,0,4.95,0,7.29,0,0-.4.56-1.52-3.73-1.52S104.37,112.73,104.37,113.13Z" transform="translate(-29.22 -1.1)"/><path class="cls-57" d="M107.93,112.14c4.29,0,3.51.84,3.51,1h-6.88C104.56,113,103.64,112.14,107.93,112.14Z" transform="translate(-29.22 -1.1)"/><path class="cls-109" d="M110.15,112.79h-4.3a3.32,3.32,0,0,0-3.15,2.32v-.88a3.16,3.16,0,0,1,2.89-3.37h4.82a3.16,3.16,0,0,1,2.88,3.37v.89A3.32,3.32,0,0,0,110.15,112.79Z" transform="translate(-29.22 -1.1)"/><path class="cls-2" d="M98.1,116.44c.34-5.38,3.58-6.94,5.26-7-.28,2.94-.62,9.43-.84,13.19C100.84,122.69,97.76,121.81,98.1,116.44Z" transform="translate(-29.22 -1.1)"/><path class="cls-110" d="M102.54,122.45c.22-3.77.52-9.56.79-12.5-1.58,0-4.54,1.43-4.88,6.51C98.1,121.83,101,122.45,102.54,122.45Z" transform="translate(-29.22 -1.1)"/><path class="cls-111" d="M102.55,122.21c.23-3.76.48-8.87.74-11.81-1.47.07-4.14,1.3-4.5,6.08C98.45,121.86,101.22,122.22,102.55,122.21Z" transform="translate(-29.22 -1.1)"/><path class="cls-112" d="M102.57,122c.22-3.77.44-8.19.69-11.12-1.37.1-3.76,1.17-4.12,5.64C98.8,121.88,101.41,122,102.57,122Z" transform="translate(-29.22 -1.1)"/><path class="cls-113" d="M102.58,121.74c.23-3.77.4-7.49.64-10.42-1.26.13-3.37,1-3.73,5.21C99.15,121.9,101.6,121.75,102.58,121.74Z" transform="translate(-29.22 -1.1)"/><path class="cls-114" d="M102.6,121.51c.23-3.77.35-6.8.58-9.74-1.15.16-3,.9-3.34,4.78C99.5,121.93,101.79,121.51,102.6,121.51Z" transform="translate(-29.22 -1.1)"/><path class="cls-115" d="M102.61,121.27c.24-3.77.32-6.11.54-9-1,.19-2.59.76-3,4.34C99.85,122,102,121.27,102.61,121.27Z" transform="translate(-29.22 -1.1)"/><path class="cls-116" d="M102.63,121c.23-3.77.27-5.42.48-8.36-.93.23-2.2.64-2.57,3.92C100.2,122,102.17,121,102.63,121Z" transform="translate(-29.22 -1.1)"/><path class="cls-117" d="M102.64,120.8c.24-3.77.24-4.73.44-7.66-.83.26-1.82.5-2.19,3.48C100.55,122,102.36,120.8,102.64,120.8Z" transform="translate(-29.22 -1.1)"/><path class="cls-118" d="M101.24,116.65c.38-2.69,1.08-2.77,1.8-3.06-.19,2.94-.14,3.21-.38,7C102.55,120.56,100.9,122,101.24,116.65Z" transform="translate(-29.22 -1.1)"/><rect class="cls-108" x="15.85" y="117.5" width="56.6" height="2.15"/><rect class="cls-107" x="18.82" y="114.68" width="49.65" height="2.81"/><path class="cls-119" d="M42.79,125.77v-8.11h3a.47.47,0,0,1,.51.43v7.24a.48.48,0,0,1-.51.44Z" transform="translate(-29.22 -1.1)"/><path class="cls-120" d="M42.79,125.7H45a3.58,3.58,0,0,0,.69-.07.47.47,0,0,0,.42-.45v-7a.46.46,0,0,0-.5-.43H42.79Z" transform="translate(-29.22 -1.1)"/><path class="cls-121" d="M42.79,125.62H45a1.71,1.71,0,0,0,.65-.12.5.5,0,0,0,.34-.47v-6.77a.47.47,0,0,0-.51-.41H42.79Z" transform="translate(-29.22 -1.1)"/><path class="cls-122" d="M42.79,125.55H44.9a1,1,0,0,0,.62-.19.59.59,0,0,0,.25-.49v-6.52a.47.47,0,0,0-.51-.41H42.79Z" transform="translate(-29.22 -1.1)"/><path class="cls-123" d="M42.79,125.48h2.07a.68.68,0,0,0,.58-.25.89.89,0,0,0,.17-.51v-6.28a.47.47,0,0,0-.51-.4H42.79Z" transform="translate(-29.22 -1.1)"/><path class="cls-124" d="M42.79,125.41h2a.53.53,0,0,0,.55-.32,2,2,0,0,0,.08-.52v-6a.47.47,0,0,0-.51-.39H42.79Z" transform="translate(-29.22 -1.1)"/><path class="cls-125" d="M42.79,125.34v-7.11h2c.28,0,.51.17.51.38V125c0,.21-.23.38-.51.38Z" transform="translate(-29.22 -1.1)"/><path class="cls-126" d="M32.53,115.41v13.21A3.18,3.18,0,0,0,35.48,132h4.91a3.18,3.18,0,0,0,3-3.38V115.41a3.18,3.18,0,0,0-3-3.38H35.48A3.18,3.18,0,0,0,32.53,115.41Z" transform="translate(-29.22 -1.1)"/><path class="cls-127" d="M35.62,131.79h4.63a3.2,3.2,0,0,0,3-3.38V115.72a3.2,3.2,0,0,0-3-3.38H35.62a3.2,3.2,0,0,0-3,3.38v12.69A3.2,3.2,0,0,0,35.62,131.79Z" transform="translate(-29.22 -1.1)"/><path class="cls-128" d="M35.77,131.58H40.1a3.22,3.22,0,0,0,3-3.38V116a3.23,3.23,0,0,0-3-3.38H35.77a3.23,3.23,0,0,0-3,3.38V128.2A3.22,3.22,0,0,0,35.77,131.58Z" transform="translate(-29.22 -1.1)"/><path class="cls-129" d="M35.91,131.37H40A3.25,3.25,0,0,0,43.05,128V116.34A3.24,3.24,0,0,0,40,113H35.91a3.24,3.24,0,0,0-3.09,3.37V128A3.25,3.25,0,0,0,35.91,131.37Z" transform="translate(-29.22 -1.1)"/><path class="cls-130" d="M36.06,131.16h3.75A3.27,3.27,0,0,0,43,127.78V116.66a3.27,3.27,0,0,0-3.14-3.38H36.06a3.27,3.27,0,0,0-3.14,3.38v11.12A3.27,3.27,0,0,0,36.06,131.16Z" transform="translate(-29.22 -1.1)"/><path class="cls-131" d="M36.2,131h3.47a3.29,3.29,0,0,0,3.18-3.38V117a3.29,3.29,0,0,0-3.18-3.38H36.2A3.28,3.28,0,0,0,33,117v10.6A3.28,3.28,0,0,0,36.2,131Z" transform="translate(-29.22 -1.1)"/><path class="cls-132" d="M36.35,130.74h3.17a3.3,3.3,0,0,0,3.23-3.38V117.28a3.3,3.3,0,0,0-3.23-3.37H36.35a3.31,3.31,0,0,0-3.24,3.37v10.08A3.31,3.31,0,0,0,36.35,130.74Z" transform="translate(-29.22 -1.1)"/><path class="cls-133" d="M36.49,130.53h2.89a3.33,3.33,0,0,0,3.28-3.38v-9.56a3.33,3.33,0,0,0-3.28-3.37H36.49a3.33,3.33,0,0,0-3.28,3.37v9.56A3.33,3.33,0,0,0,36.49,130.53Z" transform="translate(-29.22 -1.1)"/><path class="cls-134" d="M36.64,130.32h2.59a3.35,3.35,0,0,0,3.33-3.38v-9a3.35,3.35,0,0,0-3.33-3.38H36.64a3.35,3.35,0,0,0-3.33,3.38v9A3.35,3.35,0,0,0,36.64,130.32Z" transform="translate(-29.22 -1.1)"/><rect class="cls-135" x="4.18" y="113.75" width="9.06" height="15.27" rx="3.38"/><rect class="cls-136" x="7.45" y="113.25" width="0.33" height="15.56"/><rect class="cls-136" x="9.6" y="113.25" width="0.33" height="15.56"/><rect class="cls-136" x="11.75" y="113.25" width="0.33" height="15.56"/><rect class="cls-136" x="5.13" y="113.25" width="0.33" height="15.56"/><rect class="cls-137" x="4.96" y="116.89" width="7.61" height="2.81" rx="0.46"/><rect class="cls-138" x="7.45" y="116.89" width="0.33" height="2.81"/><rect class="cls-138" x="9.6" y="116.89" width="0.33" height="2.81"/><rect class="cls-138" x="11.75" y="116.89" width="0.33" height="2.81"/><path class="cls-139" d="M34.35,120.69v-2.6a.51.51,0,0,1,.3-.1h0v2.81h0A.46.46,0,0,1,34.35,120.69Z" transform="translate(-29.22 -1.1)"/><rect class="cls-140" x="14.23" y="118.54" width="1.82" height="1.49"/><rect class="cls-141" x="17.05" y="118.38" width="57.92" height="4.3"/><path class="cls-142" d="M103.2,125.77v-8.11h-3a.47.47,0,0,0-.51.43v7.24a.48.48,0,0,0,.51.44Z" transform="translate(-29.22 -1.1)"/><path class="cls-143" d="M103.2,125.7v-8h-2.8a.47.47,0,0,0-.51.43v7a.47.47,0,0,0,.42.45,3.58,3.58,0,0,0,.69.07Z" transform="translate(-29.22 -1.1)"/><path class="cls-144" d="M103.2,125.62v-7.77h-2.64a.47.47,0,0,0-.51.41V125a.51.51,0,0,0,.34.47,1.71,1.71,0,0,0,.65.12Z" transform="translate(-29.22 -1.1)"/><path class="cls-145" d="M103.2,125.55v-7.61h-2.47a.47.47,0,0,0-.51.41v6.52a.59.59,0,0,0,.25.49,1,1,0,0,0,.62.19Z" transform="translate(-29.22 -1.1)"/><path class="cls-146" d="M103.2,125.48V118h-2.31a.47.47,0,0,0-.51.4v6.28a.89.89,0,0,0,.17.51.69.69,0,0,0,.58.25Z" transform="translate(-29.22 -1.1)"/><path class="cls-147" d="M103.2,125.41v-7.28h-2.14a.47.47,0,0,0-.51.39v6a2,2,0,0,0,.08.52.54.54,0,0,0,.55.32Z" transform="translate(-29.22 -1.1)"/><path class="cls-148" d="M103.2,125.34v-7.11h-2c-.28,0-.5.17-.5.38V125c0,.21.22.38.5.38Z" transform="translate(-29.22 -1.1)"/><path class="cls-149" d="M113.46,115.41v13.21a3.18,3.18,0,0,1-2.95,3.38H105.6a3.18,3.18,0,0,1-2.95-3.38V115.41A3.18,3.18,0,0,1,105.6,112h4.91A3.18,3.18,0,0,1,113.46,115.41Z" transform="translate(-29.22 -1.1)"/><path class="cls-150" d="M110.37,131.79a3.2,3.2,0,0,0,3-3.38V115.72a3.2,3.2,0,0,0-3-3.38h-4.63a3.2,3.2,0,0,0-3,3.38v12.69a3.2,3.2,0,0,0,3,3.38Z" transform="translate(-29.22 -1.1)"/><path class="cls-151" d="M110.22,131.58a3.22,3.22,0,0,0,3-3.38V116a3.23,3.23,0,0,0-3-3.38h-4.33a3.23,3.23,0,0,0-3,3.38V128.2a3.22,3.22,0,0,0,3,3.38Z" transform="translate(-29.22 -1.1)"/><path class="cls-152" d="M110.08,131.37a3.25,3.25,0,0,0,3.09-3.38V116.34a3.24,3.24,0,0,0-3.09-3.37h-4a3.24,3.24,0,0,0-3.08,3.37V128a3.24,3.24,0,0,0,3.08,3.38Z" transform="translate(-29.22 -1.1)"/><path class="cls-153" d="M109.94,131.16a3.26,3.26,0,0,0,3.13-3.38V116.66a3.26,3.26,0,0,0-3.13-3.38h-3.76a3.27,3.27,0,0,0-3.14,3.38v11.12a3.27,3.27,0,0,0,3.14,3.38Z" transform="translate(-29.22 -1.1)"/><path class="cls-154" d="M109.79,131a3.28,3.28,0,0,0,3.18-3.38V117a3.28,3.28,0,0,0-3.18-3.38h-3.47a3.29,3.29,0,0,0-3.18,3.38v10.6a3.29,3.29,0,0,0,3.18,3.38Z" transform="translate(-29.22 -1.1)"/><path class="cls-155" d="M109.64,130.74a3.31,3.31,0,0,0,3.24-3.38V117.28a3.31,3.31,0,0,0-3.24-3.37h-3.17a3.3,3.3,0,0,0-3.23,3.37v10.08a3.3,3.3,0,0,0,3.23,3.38Z" transform="translate(-29.22 -1.1)"/><path class="cls-156" d="M109.5,130.53a3.33,3.33,0,0,0,3.28-3.38v-9.56a3.33,3.33,0,0,0-3.28-3.37h-2.89a3.33,3.33,0,0,0-3.28,3.37v9.56a3.33,3.33,0,0,0,3.28,3.38Z" transform="translate(-29.22 -1.1)"/><path class="cls-157" d="M109.35,130.32a3.35,3.35,0,0,0,3.33-3.38v-9a3.35,3.35,0,0,0-3.33-3.38h-2.59a3.35,3.35,0,0,0-3.33,3.38v9a3.35,3.35,0,0,0,3.33,3.38Z" transform="translate(-29.22 -1.1)"/><path class="cls-158" d="M77.68,113.75H80a3.37,3.37,0,0,1,3.37,3.37v8.52A3.38,3.38,0,0,1,80,129H77.68a3.38,3.38,0,0,1-3.38-3.38v-8.52a3.37,3.37,0,0,1,3.37-3.37Z"/><rect class="cls-136" x="79.77" y="113.25" width="0.33" height="15.56"/><rect class="cls-136" x="77.62" y="113.25" width="0.33" height="15.56"/><rect class="cls-136" x="75.46" y="113.25" width="0.33" height="15.56"/><rect class="cls-136" x="82.08" y="113.25" width="0.33" height="15.56"/><rect class="cls-159" x="74.97" y="116.89" width="7.61" height="2.81" rx="0.46"/><rect class="cls-138" x="79.77" y="116.89" width="0.33" height="2.81"/><rect class="cls-138" x="77.62" y="116.89" width="0.33" height="2.81"/><rect class="cls-138" x="75.46" y="116.89" width="0.33" height="2.81"/><path class="cls-139" d="M111.64,120.69v-2.6a.51.51,0,0,0-.3-.1h0v2.81h0A.46.46,0,0,0,111.64,120.69Z" transform="translate(-29.22 -1.1)"/><rect class="cls-140" x="71.49" y="118.54" width="1.82" height="1.49"/><rect class="cls-160" x="17.38" y="119.21" width="53.12" height="0.99"/><path class="cls-4" d="M75.84,93.94c33.74,0,42.75-2.13,42.75-3.64-18.43.08-59.16,0-82.8,0C35.79,91.81,42.09,93.94,75.84,93.94Z" transform="translate(-29.22 -1.1)"/><path class="cls-161" d="M37.27,90.3c0,1.36,4.82,3.26,38.57,3.26s41-1.9,41-3.26C98.46,90.37,60.91,90.31,37.27,90.3Z" transform="translate(-29.22 -1.1)"/><path class="cls-162" d="M38.75,90.3c0,1.2,3.34,2.88,37.09,2.88s39.34-1.68,39.34-2.88C96.75,90.36,62.39,90.31,38.75,90.3Z" transform="translate(-29.22 -1.1)"/><path class="cls-163" d="M40.23,90.3c0,1,1.86,2.5,35.61,2.5s37.63-1.46,37.63-2.5C95,90.35,63.87,90.31,40.23,90.3Z" transform="translate(-29.22 -1.1)"/><path class="cls-164" d="M41.71,90.3c0,.88.38,2.12,34.13,2.12s35.93-1.24,35.93-2.12C93.34,90.35,65.35,90.31,41.71,90.3Z" transform="translate(-29.22 -1.1)"/><path class="cls-165" d="M43.18,90.3C43.18,91,42.09,92,75.84,92s34.22-1,34.22-1.74C91.63,90.34,66.83,90.31,43.18,90.3Z" transform="translate(-29.22 -1.1)"/><path class="cls-166" d="M44.66,90.3c0,.56-2.57,1.36,31.18,1.36s32.52-.8,32.52-1.36C89.93,90.33,68.31,90.3,44.66,90.3Z" transform="translate(-29.22 -1.1)"/><path class="cls-167" d="M46.14,90.3c0,.41-4,1,29.7,1s30.81-.57,30.81-1C88.22,90.32,69.79,90.3,46.14,90.3Z" transform="translate(-29.22 -1.1)"/><path class="cls-168" d="M47.62,90.3c0,.25-5.53.6,28.22.6s29.1-.35,29.1-.6C86.52,90.31,71.26,90.3,47.62,90.3Z" transform="translate(-29.22 -1.1)"/><path class="cls-169" d="M75.84,90.53c33.74,0,27.4-.14,27.4-.23H49.1C49.1,90.39,42.09,90.53,75.84,90.53Z" transform="translate(-29.22 -1.1)"/><path class="cls-170" d="M72,100.39c25,0,31.7-1.86,31.7-3.2-13.66.08-43.86,0-61.39,0C42.3,98.53,47,100.39,72,100.39Z" transform="translate(-29.22 -1.1)"/><path class="cls-171" d="M43.39,97.19c0,1.2,3.58,2.87,28.6,2.87s30.44-1.67,30.44-2.87C88.76,97.26,60.93,97.21,43.39,97.19Z" transform="translate(-29.22 -1.1)"/><path class="cls-172" d="M44.49,97.19c0,1.06,2.48,2.54,27.5,2.54s29.17-1.48,29.17-2.54C87.5,97.25,62,97.21,44.49,97.19Z" transform="translate(-29.22 -1.1)"/><path class="cls-173" d="M45.59,97.19c0,.92,1.38,2.2,26.4,2.2s27.91-1.28,27.91-2.2C86.24,97.24,63.12,97.21,45.59,97.19Z" transform="translate(-29.22 -1.1)"/><path class="cls-174" d="M46.68,97.19c0,.78.29,1.87,25.31,1.87S98.64,98,98.64,97.19C85,97.24,64.22,97.2,46.68,97.19Z" transform="translate(-29.22 -1.1)"/><path class="cls-175" d="M47.78,97.19c0,.64-.81,1.54,24.21,1.54s25.38-.9,25.38-1.54C83.71,97.23,65.31,97.2,47.78,97.19Z" transform="translate(-29.22 -1.1)"/><path class="cls-176" d="M48.88,97.19c0,.5-1.91,1.2,23.11,1.2s24.12-.7,24.12-1.2C82.44,97.22,66.41,97.2,48.88,97.19Z" transform="translate(-29.22 -1.1)"/><path class="cls-177" d="M50,97.19c0,.36-3,.87,22,.87s22.85-.51,22.85-.87C81.18,97.21,67.51,97.2,50,97.19Z" transform="translate(-29.22 -1.1)"/><path class="cls-178" d="M51.07,97.19c0,.23-4.1.54,20.92.54s21.59-.31,21.59-.54C79.91,97.21,68.6,97.2,51.07,97.19Z" transform="translate(-29.22 -1.1)"/><path class="cls-179" d="M72,97.39c25,0,20.32-.11,20.32-.2-13.66,0-22.61,0-40.14,0C52.17,97.28,47,97.39,72,97.39Z" transform="translate(-29.22 -1.1)"/><path class="cls-2" d="M71.66,103.37c25,0,31.7-1.29,31.7-2.21-13.66.06-43.86,0-61.39,0C42,102.08,46.64,103.37,71.66,103.37Z" transform="translate(-29.22 -1.1)"/><path class="cls-180" d="M43.06,101.16c0,.83,3.58,2,28.6,2s30.44-1.15,30.44-2C88.44,101.21,60.6,101.17,43.06,101.16Z" transform="translate(-29.22 -1.1)"/><path class="cls-181" d="M44.16,101.16c0,.73,2.48,1.75,27.5,1.75s29.17-1,29.17-1.75C87.17,101.21,61.69,101.17,44.16,101.16Z" transform="translate(-29.22 -1.1)"/><path class="cls-182" d="M45.26,101.16c0,.64,1.38,1.52,26.4,1.52s27.91-.88,27.91-1.52C85.91,101.2,62.79,101.17,45.26,101.16Z" transform="translate(-29.22 -1.1)"/><path class="cls-183" d="M46.35,101.16c0,.54.29,1.29,25.31,1.29s26.64-.75,26.64-1.29C84.64,101.2,63.88,101.17,46.35,101.16Z" transform="translate(-29.22 -1.1)"/><path class="cls-184" d="M47.45,101.16c0,.45-.81,1.06,24.21,1.06S97,101.61,97,101.16C83.38,101.19,65,101.17,47.45,101.16Z" transform="translate(-29.22 -1.1)"/><path class="cls-185" d="M48.55,101.16c0,.35-1.91.83,23.11.83s24.12-.48,24.12-.83C82.11,101.18,66.08,101.17,48.55,101.16Z" transform="translate(-29.22 -1.1)"/><path class="cls-186" d="M49.64,101.16c0,.25-3,.6,22,.6s22.85-.35,22.85-.6C80.85,101.18,67.17,101.17,49.64,101.16Z" transform="translate(-29.22 -1.1)"/><path class="cls-187" d="M50.74,101.16c0,.16-4.1.37,20.92.37s21.59-.21,21.59-.37C79.58,101.17,68.27,101.17,50.74,101.16Z" transform="translate(-29.22 -1.1)"/><path class="cls-188" d="M71.66,101.3c25,0,20.32-.08,20.32-.14-13.66,0-22.61,0-40.14,0C51.84,101.22,46.64,101.3,71.66,101.3Z" transform="translate(-29.22 -1.1)"/><path class="cls-2" d="M53.63,18.64c2.16,0,2.73,3.38,2.73,5.79-1.18-.13-3.78,0-5.29,0C51.07,22,51.47,18.64,53.63,18.64Z" transform="translate(-29.22 -1.1)"/><path class="cls-180" d="M51.1,24.43c1.51,0,4.07-.12,5.25,0,0-2.16-.56-5.24-2.72-5.24S51.1,22.27,51.1,24.43Z" transform="translate(-29.22 -1.1)"/><path class="cls-110" d="M51.13,24.43c1.51,0,4-.11,5.21,0,0-1.91-.55-4.69-2.71-4.69S51.13,22.52,51.13,24.43Z" transform="translate(-29.22 -1.1)"/><path class="cls-189" d="M51.16,24.43c1.51,0,4-.09,5.16,0,0-1.66-.54-4.14-2.69-4.14S51.16,22.77,51.16,24.43Z" transform="translate(-29.22 -1.1)"/><path class="cls-190" d="M51.19,24.43c1.51,0,3.94-.08,5.12,0,0-1.41-.53-3.58-2.69-3.58S51.19,23,51.19,24.43Z" transform="translate(-29.22 -1.1)"/><path class="cls-191" d="M51.22,24.43c1.51,0,3.9-.06,5.08,0,0-1.16-.52-3-2.68-3S51.22,23.27,51.22,24.43Z" transform="translate(-29.22 -1.1)"/><path class="cls-192" d="M51.25,24.43c1.51,0,3.86-.05,5,0A2.42,2.42,0,0,0,53.62,22,2.16,2.16,0,0,0,51.25,24.43Z" transform="translate(-29.22 -1.1)"/><path class="cls-113" d="M51.28,24.43c1.51,0,3.82,0,5,0,0-.65-.5-1.93-2.66-1.93S51.28,23.78,51.28,24.43Z" transform="translate(-29.22 -1.1)"/><path class="cls-193" d="M51.31,24.43c1.51,0,3.77,0,4.95,0,0-.4-.48-1.38-2.64-1.38S51.31,24,51.31,24.43Z" transform="translate(-29.22 -1.1)"/><path class="cls-194" d="M53.61,23.6c2.16,0,2.64.68,2.64.83H51.34C51.34,24.28,51.46,23.6,53.61,23.6Z" transform="translate(-29.22 -1.1)"/><rect class="cls-195" x="27.14" y="16.71" width="32.93" height="1.66"/><path class="cls-2" d="M91.86,18.64c2.16,0,2.73,3.38,2.73,5.79-1.18-.13-3.78,0-5.29,0C89.3,22,89.7,18.64,91.86,18.64Z" transform="translate(-29.22 -1.1)"/><path class="cls-180" d="M89.33,24.43c1.51,0,4.07-.12,5.25,0,0-2.16-.57-5.24-2.72-5.24S89.33,22.27,89.33,24.43Z" transform="translate(-29.22 -1.1)"/><path class="cls-110" d="M89.36,24.43c1.51,0,4-.11,5.21,0,0-1.91-.56-4.69-2.72-4.69S89.36,22.52,89.36,24.43Z" transform="translate(-29.22 -1.1)"/><path class="cls-189" d="M89.39,24.43c1.51,0,4-.09,5.16,0,0-1.66-.54-4.14-2.7-4.14S89.39,22.77,89.39,24.43Z" transform="translate(-29.22 -1.1)"/><path class="cls-190" d="M89.42,24.43c1.51,0,3.94-.08,5.12,0,0-1.41-.53-3.58-2.69-3.58S89.42,23,89.42,24.43Z" transform="translate(-29.22 -1.1)"/><path class="cls-191" d="M89.45,24.43c1.51,0,3.9-.06,5.08,0,0-1.16-.52-3-2.68-3S89.45,23.27,89.45,24.43Z" transform="translate(-29.22 -1.1)"/><path class="cls-192" d="M89.48,24.43c1.51,0,3.86-.05,5,0A2.42,2.42,0,0,0,91.85,22,2.16,2.16,0,0,0,89.48,24.43Z" transform="translate(-29.22 -1.1)"/><path class="cls-113" d="M89.51,24.43c1.51,0,3.81,0,5,0,0-.65-.5-1.93-2.65-1.93S89.51,23.78,89.51,24.43Z" transform="translate(-29.22 -1.1)"/><path class="cls-193" d="M89.54,24.43c1.51,0,3.77,0,4.95,0,0-.4-.49-1.38-2.65-1.38S89.54,24,89.54,24.43Z" transform="translate(-29.22 -1.1)"/><path class="cls-194" d="M91.84,23.6c2.16,0,2.64.68,2.64.83H89.57C89.57,24.28,89.68,23.6,91.84,23.6Z" transform="translate(-29.22 -1.1)"/><path class="cls-196" d="M54.25,5.9c1.67,0,3,1,3,2.31s-1.35,2.32-3,2.32-3-1-3-2.32S52.59,5.9,54.25,5.9Z" transform="translate(-29.22 -1.1)"/><path class="cls-197" d="M54.25,6.72c1.67,0,3,1,3,2.32s-1.35,2.32-3,2.32-3-1-3-2.32S52.59,6.72,54.25,6.72Z" transform="translate(-29.22 -1.1)"/><path class="cls-198" d="M51.23,4.6a2.32,2.32,0,0,1,2.54-2A2.52,2.52,0,0,1,56.19,4a2.91,2.91,0,0,0-2.28-1,2.65,2.65,0,0,0-2.67,1.74C51.24,4.7,51.23,4.65,51.23,4.6Z" transform="translate(-29.22 -1.1)"/><path class="cls-198" d="M51.4,5.74a2.31,2.31,0,0,1,2.53-2,2.54,2.54,0,0,1,2.43,1.42,2.94,2.94,0,0,0-2.29-1A2.61,2.61,0,0,0,51.41,5.9.92.92,0,0,1,51.4,5.74Z" transform="translate(-29.22 -1.1)"/><path class="cls-198" d="M51.57,6.9a2.33,2.33,0,0,1,2.54-2A2.54,2.54,0,0,1,56.53,6.3a3,3,0,0,0-2.29-1,2.62,2.62,0,0,0-2.66,1.73A.76.76,0,0,1,51.57,6.9Z" transform="translate(-29.22 -1.1)"/><path class="cls-199" d="M51.23,4.08a2.27,2.27,0,0,1,2.46-2A2.45,2.45,0,0,1,56,3.49a2.82,2.82,0,0,0-2.21-1,2.55,2.55,0,0,0-2.58,1.74S51.23,4.13,51.23,4.08Z" transform="translate(-29.22 -1.1)"/><path class="cls-1" d="M93.91,6.55a2.2,2.2,0,0,0,0-.36,1.66,1.66,0,0,0,.21-.79A1.37,1.37,0,0,0,94,5a1.59,1.59,0,0,0,.21-.8,1.47,1.47,0,0,0,0-.36,1.57,1.57,0,0,0,.22-.79c0-1.1-1.17-2-2.6-2a2.35,2.35,0,0,0-2.59,2,1.47,1.47,0,0,0,0,.36,1.57,1.57,0,0,0-.22.79,1.36,1.36,0,0,0,0,.36,1.63,1.63,0,0,0-.22.8,1.47,1.47,0,0,0,0,.36,1.56,1.56,0,0,0-.21.79,2.35,2.35,0,0,0,2.59,2C92.74,8.54,93.91,7.65,93.91,6.55Z" transform="translate(-29.22 -1.1)"/><path class="cls-200" d="M91.22,5.4c-1.67,0-3,1-3,2.32s1.35,2.31,3,2.31,3-1,3-2.31S92.88,5.4,91.22,5.4Z" transform="translate(-29.22 -1.1)"/><path class="cls-201" d="M91.22,6.23c-1.67,0-3,1-3,2.31s1.35,2.32,3,2.32,3-1,3-2.32S92.88,6.23,91.22,6.23Z" transform="translate(-29.22 -1.1)"/><path class="cls-198" d="M94.24,4.1a2.32,2.32,0,0,0-2.54-2,2.54,2.54,0,0,0-2.42,1.42,2.92,2.92,0,0,1,2.28-1,2.64,2.64,0,0,1,2.67,1.74A.86.86,0,0,0,94.24,4.1Z" transform="translate(-29.22 -1.1)"/><path class="cls-198" d="M94.07,5.24a2.31,2.31,0,0,0-2.53-2,2.55,2.55,0,0,0-2.43,1.42,2.94,2.94,0,0,1,2.29-1A2.62,2.62,0,0,1,94.06,5.4.86.86,0,0,0,94.07,5.24Z" transform="translate(-29.22 -1.1)"/><path class="cls-198" d="M93.9,6.4a2.31,2.31,0,0,0-2.53-2,2.55,2.55,0,0,0-2.43,1.42,2.94,2.94,0,0,1,2.29-1,2.62,2.62,0,0,1,2.66,1.74A.92.92,0,0,0,93.9,6.4Z" transform="translate(-29.22 -1.1)"/><path class="cls-199" d="M94.24,3.58a2.26,2.26,0,0,0-2.45-2A2.45,2.45,0,0,0,89.44,3a2.82,2.82,0,0,1,2.21-1,2.55,2.55,0,0,1,2.58,1.74A.81.81,0,0,0,94.24,3.58Z" transform="translate(-29.22 -1.1)"/><path class="cls-2" d="M72.37,17.48c15.71,0,19.91-1.19,19.91-2-8.59.05-27.55,0-38.56,0C53.72,16.29,56.65,17.48,72.37,17.48Z" transform="translate(-29.22 -1.1)"/><path class="cls-202" d="M54.4,15.44c0,.76,2.25,1.83,18,1.83s19.11-1.07,19.11-1.83C82.9,15.48,65.42,15.45,54.4,15.44Z" transform="translate(-29.22 -1.1)"/><path class="cls-203" d="M55.09,15.44c0,.67,1.56,1.62,17.28,1.62s18.32-.95,18.32-1.62C82.1,15.48,66.1,15.45,55.09,15.44Z" transform="translate(-29.22 -1.1)"/><path class="cls-204" d="M55.78,15.44c0,.58.87,1.4,16.59,1.4s17.52-.82,17.52-1.4C81.31,15.47,66.79,15.45,55.78,15.44Z" transform="translate(-29.22 -1.1)"/><path class="cls-205" d="M56.47,15.44c0,.5.18,1.19,15.9,1.19s16.73-.69,16.73-1.19C80.52,15.47,67.48,15.45,56.47,15.44Z" transform="translate(-29.22 -1.1)"/><path class="cls-206" d="M57.16,15.44c0,.41-.51,1,15.21,1s15.93-.57,15.93-1C79.72,15.46,68.17,15.45,57.16,15.44Z" transform="translate(-29.22 -1.1)"/><path class="cls-207" d="M57.85,15.44c0,.32-1.2.77,14.52.77s15.14-.45,15.14-.77C78.93,15.46,68.86,15.45,57.85,15.44Z" transform="translate(-29.22 -1.1)"/><path class="cls-208" d="M58.54,15.44c0,.23-1.89.55,13.83.55s14.35-.32,14.35-.55Z" transform="translate(-29.22 -1.1)"/><path class="cls-209" d="M59.22,15.44c0,.14-2.57.34,13.15.34s13.55-.2,13.55-.34Z" transform="translate(-29.22 -1.1)"/><path class="cls-210" d="M72.37,15.57c15.71,0,12.76-.07,12.76-.13H59.91C59.91,15.5,56.65,15.57,72.37,15.57Z" transform="translate(-29.22 -1.1)"/><path class="cls-4" d="M72.87,94.1c28,0,35.46,2.13,35.46,3.64-15.29-.08-49.07,0-68.68,0C39.65,96.23,44.88,94.1,72.87,94.1Z" transform="translate(-29.22 -1.1)"/><path class="cls-211" d="M40.87,97.74c19.62,0,50.76-.07,66,0,0-1.36-6-3.26-34-3.26S40.87,96.38,40.87,97.74Z" transform="translate(-29.22 -1.1)"/><path class="cls-212" d="M42.1,97.74c19.61,0,48.11-.06,63.4,0,0-1.2-4.64-2.88-32.63-2.88S42.1,96.54,42.1,97.74Z" transform="translate(-29.22 -1.1)"/><path class="cls-213" d="M43.33,97.74c19.61,0,45.47-.06,60.75,0,0-1-3.22-2.5-31.21-2.5S43.33,96.7,43.33,97.74Z" transform="translate(-29.22 -1.1)"/><path class="cls-214" d="M44.56,97.74c19.61,0,42.83,0,58.11,0,0-.88-1.81-2.12-29.8-2.12S44.56,96.86,44.56,97.74Z" transform="translate(-29.22 -1.1)"/><path class="cls-215" d="M45.78,97.74c19.61,0,40.19,0,55.48,0,0-.72-.4-1.74-28.39-1.74S45.78,97,45.78,97.74Z" transform="translate(-29.22 -1.1)"/><path class="cls-216" d="M47,97.74c19.61,0,37.54,0,52.83,0,0-.57,1-1.36-27-1.36S47,97.17,47,97.74Z" transform="translate(-29.22 -1.1)"/><path class="cls-217" d="M48.24,97.74c19.61,0,34.9,0,50.19,0,0-.41,2.43-1-25.56-1S48.24,97.33,48.24,97.74Z" transform="translate(-29.22 -1.1)"/><path class="cls-218" d="M49.46,97.74H97c0-.25,3.85-.61-24.14-.61S49.46,97.49,49.46,97.74Z" transform="translate(-29.22 -1.1)"/><path class="cls-219" d="M72.87,97.51c28,0,22.73.14,22.73.23H50.69C50.69,97.65,44.88,97.51,72.87,97.51Z" transform="translate(-29.22 -1.1)"/></svg>